<?xml version="1.0" encoding="UTF-8" standalone="no"?>
<!-- Created with Inkscape (http://www.inkscape.org/) -->

<svg
   xmlns:dc="http://purl.org/dc/elements/1.1/"
   xmlns:cc="http://creativecommons.org/ns#"
   xmlns:rdf="http://www.w3.org/1999/02/22-rdf-syntax-ns#"
   xmlns:svg="http://www.w3.org/2000/svg"
   xmlns="http://www.w3.org/2000/svg"
   version="1.1"
   width="228"
   height="132"
   id="svg3233">
  <defs
     id="defs3235">
    <marker
       refX="0"
       refY="0"
       orient="auto"
       id="TriangleOutM"
       style="overflow:visible">
      <path
         d="m 5.77,0 -8.65,5 0,-10 8.65,5 z"
         transform="scale(0.4,0.4)"
         id="path4409"
         style="fill:#000000;fill-opacity:1;fill-rule:evenodd;stroke:#000000;stroke-width:1pt;stroke-opacity:1" />
    </marker>
    <marker
       refX="0"
       refY="0"
       orient="auto"
       id="marker4582"
       style="overflow:visible">
      <path
         d="m 5.77,0 -8.65,5 0,-10 8.65,5 z"
         transform="scale(0.8,0.8)"
         id="path4584"
         style="fill:#000000;fill-opacity:1;fill-rule:evenodd;stroke:#000000;stroke-width:1pt;stroke-opacity:1" />
    </marker>
    <marker
       refX="0"
       refY="0"
       orient="auto"
       id="TriangleOutL"
       style="overflow:visible">
      <path
         d="m 5.77,0 -8.65,5 0,-10 8.65,5 z"
         transform="scale(0.8,0.8)"
         id="path4406"
         style="fill:#000000;fill-opacity:1;fill-rule:evenodd;stroke:#000000;stroke-width:1pt;stroke-opacity:1" />
    </marker>
    <marker
       refX="0"
       refY="0"
       orient="auto"
       id="Arrow1Sstart"
       style="overflow:visible">
      <path
         d="M 0,0 5,-5 -12.5,0 5,5 0,0 z"
         transform="matrix(0.2,0,0,0.2,1.2,0)"
         id="path5306"
         style="fill-rule:evenodd;stroke:#000000;stroke-width:1pt" />
    </marker>
    <marker
       refX="0"
       refY="0"
       orient="auto"
       id="Arrow1Send"
       style="overflow:visible">
      <path
         d="M 0,0 5,-5 -12.5,0 5,5 0,0 z"
         transform="matrix(-0.2,0,0,-0.2,-1.2,0)"
         id="path5309"
         style="fill-rule:evenodd;stroke:#000000;stroke-width:1pt" />
    </marker>
    <marker
       refX="0"
       refY="0"
       orient="auto"
       id="Arrow2Sstart"
       style="overflow:visible">
      <path
         d="M 8.7185878,4.0337352 -2.2072895,0.01601326 8.7185884,-4.0017078 c -1.7454984,2.3720609 -1.7354408,5.6174519 -6e-7,8.035443 z"
         transform="matrix(0.3,0,0,0.3,-0.69,0)"
         id="path5324"
         style="fill-rule:evenodd;stroke-width:0.625;stroke-linejoin:round" />
    </marker>
    <marker
       refX="0"
       refY="0"
       orient="auto"
       id="Arrow2Mstart"
       style="overflow:visible">
      <path
         d="M 8.7185878,4.0337352 -2.2072895,0.01601326 8.7185884,-4.0017078 c -1.7454984,2.3720609 -1.7354408,5.6174519 -6e-7,8.035443 z"
         transform="scale(0.6,0.6)"
         id="path5318"
         style="fill-rule:evenodd;stroke-width:0.625;stroke-linejoin:round" />
    </marker>
    <marker
       refX="0"
       refY="0"
       orient="auto"
       id="Arrow2Lend"
       style="overflow:visible">
      <path
         d="M 8.7185878,4.0337352 -2.2072895,0.01601326 8.7185884,-4.0017078 c -1.7454984,2.3720609 -1.7354408,5.6174519 -6e-7,8.035443 z"
         transform="matrix(-1.1,0,0,-1.1,-1.1,0)"
         id="path3809"
         style="fill-rule:evenodd;stroke-width:0.625;stroke-linejoin:round" />
    </marker>
    <marker
       refX="0"
       refY="0"
       orient="auto"
       id="Arrow1Sstart-9"
       style="overflow:visible">
      <path
         d="M 0,0 5,-5 -12.5,0 5,5 0,0 z"
         transform="matrix(0.2,0,0,0.2,1.2,0)"
         id="path5306-2"
         style="fill-rule:evenodd;stroke:#000000;stroke-width:1pt" />
    </marker>
    <marker
       refX="0"
       refY="0"
       orient="auto"
       id="Arrow1Send-4"
       style="overflow:visible">
      <path
         d="M 0,0 5,-5 -12.5,0 5,5 0,0 z"
         transform="matrix(-0.2,0,0,-0.2,-1.2,0)"
         id="path5309-2"
         style="fill-rule:evenodd;stroke:#000000;stroke-width:1pt" />
    </marker>
    <filter
       x="0"
       y="0"
       width="1"
       height="1"
       color-interpolation-filters="sRGB"
       id="filter3637">
      <feColorMatrix
         result="fbSourceGraphic"
         values="1"
         type="saturate"
         id="feColorMatrix3639" />
      <feColorMatrix
         values="-1 0 0 0 1 0 -1 0 0 1 0 0 -1 0 1 0 0 0 1 0 "
         in="fbSourceGraphic"
         id="feColorMatrix3641" />
    </filter>
  </defs>
  <metadata
     id="metadata3238">
    <rdf:RDF>
      <cc:Work
         rdf:about="">
        <dc:format>image/svg+xml</dc:format>
        <dc:type
           rdf:resource="http://purl.org/dc/dcmitype/StillImage" />
        <dc:title></dc:title>
      </cc:Work>
    </rdf:RDF>
  </metadata>
  <g
     transform="translate(0,-920.36218)"
     id="layer1" />
  <g
     id="g3562"
     style="filter:url(#filter3637)">
    <path
       d="m 188.49749,981.03654 a 166.61588,155.67723 0 0 1 314.86049,-77.51588 l -148.4008,70.77683 z"
       transform="matrix(0.97166407,0.2363661,-0.2363661,0.97166407,0,-920.36218)"
       id="path4977"
       style="opacity:0.18000004;fill:#000000;fill-opacity:1;stroke-width:0.72000003;stroke-miterlimit:4;stroke-dasharray:none" />
    <path
       d="m 71.409131,937.43652 31.853189,-8.71901 9.78322,102.37529 z"
       transform="translate(0,-920.36218)"
       id="path5286"
       style="opacity:0.22448982;fill:#000000;fill-opacity:1;stroke:#000000;stroke-width:1.30839562px;stroke-linecap:butt;stroke-linejoin:miter;stroke-opacity:1" />
    <path
       d="m 114.56279,1030.3995 117.71858,-24.7293"
       transform="translate(0,-920.36218)"
       id="path2998"
       style="fill:none;stroke:#000000;stroke-width:1.01120484px;stroke-linecap:butt;stroke-linejoin:miter;stroke-opacity:1" />
    <path
       d="m 113.1431,1031.6059 60.47712,-97.60015"
       transform="translate(0,-920.36218)"
       id="path3018"
       style="fill:none;stroke:#000000;stroke-width:0.62695366;stroke-linecap:butt;stroke-linejoin:miter;stroke-miterlimit:4;stroke-opacity:1;stroke-dasharray:0.62695365, 1.2539073;stroke-dashoffset:0" />
    <path
       d="m 113.69737,1030.5851 0.27736,-105.08564"
       transform="translate(0,-920.36218)"
       id="path3794"
       style="fill:none;stroke:#000000;stroke-width:0.72248465;stroke-linecap:butt;stroke-linejoin:miter;stroke-miterlimit:4;stroke-opacity:1;stroke-dasharray:none;marker-end:url(#marker4582)" />
    <path
       d="M 113.89543,1030.9294 87.488028,935.06205"
       transform="translate(0,-920.36218)"
       id="path3798"
       style="fill:none;stroke:#000000;stroke-width:0.90622479px;stroke-linecap:butt;stroke-linejoin:miter;stroke-opacity:1;marker-end:url(#TriangleOutM)" />
    <path
       d="M 113.85688,1030.669 -2.355031,1006.9161"
       transform="translate(0,-920.36218)"
       id="path2998-3"
       style="fill:none;stroke:#000000;stroke-width:0.98467952px;stroke-linecap:butt;stroke-linejoin:miter;stroke-opacity:1" />
    <rect
       width="33.452415"
       height="29.95429"
       ry="3.2131693"
       x="-129.5777"
       y="-1050.1321"
       transform="matrix(-0.99999612,0.00278537,-0.00296104,-0.99999562,0,-920.36218)"
       id="rect5451-8-3"
       style="fill:#ffffff;fill-opacity:1;fill-rule:nonzero;stroke:#000000;stroke-width:1.269315;stroke-miterlimit:4;stroke-opacity:0.76470588;stroke-dasharray:none" />
    <path
       d="m 351.53309,294.74777 a 18.182745,18.182745 0 1 1 -36.36549,0 18.182745,18.182745 0 1 1 36.36549,0 z"
       transform="matrix(-0.08140528,-0.13084121,0.28039053,-0.1647623,118.81442,119.59142)"
       id="path2987-9-0-0-4-5-0"
       style="fill:#ffffff;fill-opacity:1;stroke:#000000;stroke-width:4;stroke-miterlimit:4;stroke-opacity:0.76470588;stroke-dasharray:none" />
    <path
       d="m 351.53309,294.74777 a 18.182745,18.182745 0 1 1 -36.36549,0 18.182745,18.182745 0 1 1 36.36549,0 z"
       transform="matrix(-0.08140528,-0.13084121,0.28039053,-0.1647623,109.01088,103.73382)"
       id="path2987-9-8-0-5-4"
       style="fill:#ffffff;fill-opacity:1;stroke:#000000;stroke-width:4;stroke-miterlimit:4;stroke-opacity:0.76470588;stroke-dasharray:none" />
    <path
       d="m 416.18285,304.8493 a 91.923882,42.426407 0 1 1 -183.84776,0 91.923882,42.426407 0 1 1 183.84776,0 z"
       transform="matrix(-0.08289435,-0.16093338,0.16445308,-0.07951022,151.11316,92.88792)"
       id="path5317-4-1-1-2"
       style="fill:#ffffff;fill-opacity:1;fill-rule:nonzero;stroke:#000000;stroke-width:4;stroke-miterlimit:4;stroke-opacity:0.76470588;stroke-dasharray:none" />
    <path
       d="m 341.43158,287.6767 a 16.162441,15.152288 0 1 1 -32.32489,0 16.162441,15.152288 0 1 1 32.32489,0 z"
       transform="matrix(-0.1210847,-0.19461721,0.20940808,-0.12305179,154.17825,114.73492)"
       id="path5319-8-4-8-1"
       style="fill:#ffffff;fill-opacity:1;fill-rule:nonzero;stroke:#000000;stroke-width:4;stroke-miterlimit:4;stroke-opacity:0.76470588;stroke-dasharray:none" />
    <path
       d="m 94.055668,963.31706 c -2.006352,0.60187 -3.118998,0.248 -8.318844,4.26501"
       transform="translate(0,-920.36218)"
       id="path5288"
       style="fill:none;stroke:#000000;stroke-width:0.65467697px;stroke-linecap:butt;stroke-linejoin:miter;stroke-opacity:1;marker-start:url(#Arrow1Sstart);marker-end:url(#Arrow1Send)" />
    <path
       d="m 137.80941,989.18636 c -10.1214,-3.18769 -20.9707,-5.17092 -33.91463,-3.68808"
       transform="translate(0,-920.36218)"
       id="path6492"
       style="fill:none;stroke:#000000;stroke-width:1.17577672px;stroke-linecap:butt;stroke-linejoin:miter;stroke-opacity:1;marker-start:url(#Arrow1Sstart);marker-end:url(#Arrow1Send)" />
    <path
       d="m 149.18348,971.00675 c -9.51265,-5.46319 -19.92073,-9.65285 -32.90556,-10.17766"
       transform="translate(0,-920.36218)"
       id="path6492-9"
       style="fill:none;stroke:#000000;stroke-width:1.27286637px;stroke-linecap:butt;stroke-linejoin:miter;stroke-opacity:1;marker-start:url(#Arrow1Sstart);marker-end:url(#Arrow1Send)" />
    <path
       d="m 79.186292,1021.8766 c 11.71523,-19.727 22.224578,-22.49063 32.721958,-25.0857"
       transform="translate(0,-920.36218)"
       id="path7103"
       style="fill:none;stroke:#000000;stroke-width:0.94476384px;stroke-linecap:butt;stroke-linejoin:miter;stroke-opacity:1;marker-start:url(#Arrow1Sstart-9);marker-end:url(#Arrow1Send-4)" />
    <rect
       width="17.923216"
       height="12.713502"
       ry="1.3637657"
       x="160.85799"
       y="-1034.6719"
       transform="matrix(-0.96436598,0.26457185,-0.27208988,-0.96227184,0,-920.36218)"
       id="rect5451-4-0-7"
       style="fill:#ffffff;fill-opacity:1;fill-rule:nonzero;stroke:#000000;stroke-width:0.60529447;stroke-miterlimit:4;stroke-opacity:0.76470588;stroke-dasharray:none" />
    <g
       transform="translate(0,-920.36218)"
       id="g5495">
      <g
         transform="matrix(0.18857143,0,0,-0.18857143,-33,171)"
         id="content"
         xml:space="preserve"
         style="font-style:normal;font-variant:normal;font-weight:normal;font-stretch:normal;letter-spacing:normal;word-spacing:normal;text-anchor:start;fill:none;stroke:#000000;stroke-linecap:butt;stroke-linejoin:miter;stroke-miterlimit:10.43299961;stroke-opacity:1;stroke-dasharray:none;stroke-dashoffset:0"><path
           d="m 469.82,440.23 0,0 0,0.01 0,0 0,0.01 -0.01,0.02 0,0.01 0,0.02 0,0.02 0,0.02 -0.01,0.02 0,0.02 -0.01,0.02 -0.01,0.02 -0.01,0.03 -0.01,0.02 -0.01,0.03 -0.01,0.02 -0.02,0.03 -0.02,0.02 -0.02,0.02 -0.02,0.03 -0.01,0.01 -0.01,0.01 -0.02,0.01 -0.01,0.01 -0.02,0.01 -0.01,0.01 -0.02,0.01 -0.01,0.01 -0.02,0.01 -0.02,0.01 -0.02,0 -0.02,0.01 -0.02,0.01 -0.02,0 -0.02,0.01 -0.02,0.01 -0.03,0 -0.02,0 -0.03,0.01 -0.02,0 -0.03,0 -0.03,0.01 -0.02,0 -0.03,0 c -1.16,0 -4.79,-0.41 -6.08,-0.5 -0.41,-0.05 -0.96,-0.1 -0.96,-1 0,-0.6 0.46,-0.6 1.21,-0.6 2.39,0 2.48,-0.34 2.48,-0.84 l -0.15,-1 -7.22,-28.7 c -0.21,-0.69 -0.21,-0.8 -0.21,-1.1 0,-1.14 1,-1.39 1.46,-1.39 0.79,0 1.59,0.6 1.84,1.3 l 0.94,3.78 1.11,4.48 c 0.29,1.1 0.59,2.19 0.84,3.35 0.1,0.3 0.5,1.94 0.55,2.23 0.14,0.46 1.69,3.25 3.39,4.6 1.09,0.79 2.64,1.73 4.78,1.73 2.14,0 2.69,-1.69 2.69,-3.48 0,-2.69 -1.89,-8.13 -3.1,-11.16 -0.39,-1.16 -0.64,-1.75 -0.64,-2.75 0,-2.33 1.74,-4.08 4.08,-4.08 4.69,0 6.53,7.27 6.53,7.67 0,0.5 -0.45,0.5 -0.59,0.5 -0.5,0 -0.5,-0.15 -0.75,-0.9 -0.75,-2.64 -2.34,-6.17 -5.08,-6.17 -0.86,0 -1.2,0.5 -1.2,1.64 0,1.25 0.45,2.45 0.9,3.54 0.8,2.14 3.04,8.07 3.04,10.96 0,3.23 -2,5.32 -5.74,5.32 -3.14,0 -5.53,-1.53 -7.37,-3.82 z"
           id="path5498"
           style="fill:#000000;stroke-width:0" /></g>    </g>
    <g
       transform="translate(65.912453,-33.335034)"
       id="g4988">
      <g
         transform="matrix(0.18857143,0,0,-0.18857143,-33,171)"
         id="g4990"
         xml:space="preserve"
         style="font-style:normal;font-variant:normal;font-weight:normal;font-stretch:normal;letter-spacing:normal;word-spacing:normal;text-anchor:start;fill:none;stroke:#000000;stroke-linecap:butt;stroke-linejoin:miter;stroke-miterlimit:10.43299961;stroke-opacity:1;stroke-dasharray:none;stroke-dashoffset:0"><path
           d="m 478.19,431.11 0,0.31 -0.01,0.34 -0.02,0.36 -0.02,0.37 -0.03,0.39 -0.04,0.39 -0.04,0.41 -0.06,0.41 -0.07,0.42 -0.07,0.43 -0.09,0.42 -0.1,0.43 -0.12,0.42 -0.12,0.42 -0.14,0.41 -0.16,0.41 -0.17,0.4 -0.18,0.38 -0.2,0.37 -0.22,0.36 -0.23,0.34 -0.25,0.32 -0.28,0.3 -0.29,0.27 -0.31,0.25 -0.16,0.12 -0.17,0.1 -0.17,0.1 -0.18,0.1 -0.18,0.08 -0.19,0.08 -0.19,0.07 -0.2,0.06 -0.21,0.05 -0.21,0.05 -0.22,0.03 -0.22,0.02 -0.23,0.02 -0.23,0 -0.05,-1.09 c 2.44,0 2.73,-3.19 2.73,-6.03 0,-2.44 -0.39,-4.99 -1.59,-9.92 h -10.41 c 0.85,3.2 1.85,7.18 3.83,10.72 1.36,2.43 3.19,5.23 5.44,5.23 l 0.05,1.09 c -6.92,0 -14.6,-14.04 -14.6,-25.45 0,-4.69 1.44,-10.22 5.99,-10.22 v 1.1 c -1.66,0 -2.71,1.45 -2.71,6.07 0,2.1 0.3,4.99 1.6,9.86 h 10.37 c -0.54,-2.28 -1.59,-6.51 -3.5,-10.11 -1.73,-3.39 -3.62,-5.82 -5.76,-5.82 v -1.1 c 7.01,0 14.59,14.3 14.59,25.46 z"
           id="path4992"
           style="fill:#000000;stroke-width:0" /><path
           d="m 488.55,440.23 0,0.01 0,0.02 0.01,0.02 0,0.02 0.01,0.03 0.01,0.03 0,0.04 0.01,0.04 0.01,0.04 0.01,0.04 0.01,0.05 0.02,0.05 0.01,0.06 0.01,0.05 0.03,0.12 0.03,0.13 0.04,0.13 0.03,0.14 0.04,0.15 0.04,0.15 0.04,0.15 0.08,0.31 0.08,0.31 0.04,0.16 0.04,0.15 0.04,0.14 0.03,0.14 0.04,0.13 0.03,0.13 0.03,0.11 0.02,0.06 0.01,0.05 0.01,0.05 0.01,0.05 0.02,0.04 0.01,0.04 0.01,0.04 0.01,0.03 0.01,0.03 0,0.03 0.01,0.02 0.01,0.02 0,0.01 0,0.01 c 0.08,0.28 1.08,2.02 2.21,2.86 0.37,0.27 1.31,0.97 2.81,0.97 0.34,0 1.22,-0.03 1.92,-0.48 -1.12,-0.32 -1.53,-1.3 -1.53,-1.93 0,-0.76 0.59,-1.28 1.39,-1.28 0.8,0 1.95,0.66 1.95,2.13 0,1.81 -1.92,2.53 -3.7,2.53 -1.81,0 -3.38,-0.72 -4.91,-2.47 -0.62,2.12 -2.75,2.47 -3.59,2.47 -1.28,0 -2.16,-0.8 -2.72,-1.77 -0.8,-1.36 -1.28,-3.39 -1.28,-3.56 0,-0.45 0.48,-0.45 0.59,-0.45 0.49,0 0.52,0.11 0.77,1.04 0.52,2.13 1.19,3.77 2.55,3.77 0.9,0 1.14,-0.77 1.14,-1.7 0,-0.68 -0.32,-1.96 -0.57,-2.89 -0.23,-0.96 -0.57,-2.38 -0.76,-3.14 l -1.11,-4.47 c -0.14,-0.44 -0.34,-1.32 -0.34,-1.43 0,-0.76 0.62,-1.1 1.18,-1.1 0.52,0 1.22,0.31 1.49,1 0.08,0.21 0.45,1.75 0.67,2.62 z"
           id="path4994"
           style="fill:#000000;stroke-width:0" /><path
           d="m 502.32,425.24 -0.01,-0.06 -0.02,-0.06 -0.01,-0.05 -0.02,-0.05 -0.01,-0.05 -0.02,-0.04 -0.01,-0.05 -0.02,-0.04 -0.01,-0.03 -0.02,-0.04 -0.02,-0.03 -0.02,-0.04 -0.03,-0.02 -0.02,-0.03 -0.03,-0.03 -0.03,-0.02 -0.03,-0.02 -0.04,-0.02 -0.04,-0.02 -0.04,-0.02 -0.05,-0.01 -0.05,-0.01 -0.05,-0.01 -0.03,-0.01 -0.03,0 -0.03,-0.01 -0.03,0 -0.04,-0.01 -0.03,0 -0.04,0 -0.03,-0.01 -0.04,0 -0.04,0 -0.04,0 -0.04,0 -0.05,-0.01 -0.04,0 -0.05,0 -0.05,0 -0.05,0 -0.05,0 c -0.37,0 -0.8,0 -0.8,-0.69 0,-0.28 0.22,-0.42 0.4,-0.42 0.37,0 0.82,0.06 1.21,0.06 0.41,0 0.83,0.04 1.25,0.04 0.5,0 0.97,-0.04 1.47,-0.04 0.42,0 0.96,-0.06 1.38,-0.06 0.33,0 0.62,0.17 0.62,0.69 0,0.42 -0.42,0.42 -0.78,0.42 -0.81,0 -1.36,0 -1.36,0.31 0,0.14 0.39,1.66 1.14,4.63 0.63,-0.84 1.61,-1.5 2.99,-1.5 v 0.86 c -2.07,0 -2.6,2.01 -2.6,2.22 0,0.12 0.07,0.26 0.08,0.39 l 1.08,4.23 c 0.09,0.41 0.12,0.46 0.55,0.96 1,1.09 2.26,1.78 3.45,1.78 1.03,0 2.2,-0.64 2.2,-2.53 0,-1.1 -0.57,-3.49 -1.28,-4.69 -1.05,-1.81 -2.53,-2.36 -3.48,-2.36 v -0.86 c 3.51,0 7,3.44 7,6.95 0,2.5 -1.81,4.35 -4.36,4.35 -1.94,0 -3.46,-1.29 -3.96,-1.75 -0.5,1.34 -2,1.75 -2.92,1.75 -0.84,0 -1.59,-0.41 -2.22,-1.38 -0.64,-1.05 -0.96,-2.34 -0.96,-2.47 0,-0.37 0.37,-0.37 0.53,-0.37 0.42,0 0.47,0.12 0.56,0.53 0.28,0.98 0.8,2.83 1.97,2.83 0.87,0 1.03,-0.82 1.03,-1.32 0,-0.34 -0.03,-0.45 -0.08,-0.64 z"
           id="path4996"
           style="fill:#000000;stroke-width:0" /><path
           d="m 531.71,436.24 0.01,0.05 0.01,0.05 0.02,0.05 0.01,0.06 0.01,0.06 0.02,0.05 0.03,0.12 0.03,0.12 0.03,0.13 0.03,0.12 0.03,0.12 0.02,0.05 0.01,0.06 0.01,0.05 0.02,0.06 0.01,0.05 0.01,0.05 0.01,0.04 0.01,0.05 0.01,0.04 0.01,0.03 0.01,0.04 0,0.03 0.01,0.03 0,0.02 0,0.02 0,0 0,0.01 c 0,0.42 -0.31,0.88 -0.92,0.88 -0.44,0 -1.05,-0.3 -1.23,-1 -0.49,0.64 -1.43,1.5 -3,1.5 v -0.86 c 1.12,0 2.2,-0.68 2.59,-2.16 l -1.14,-4.69 c -0.11,-0.37 -0.11,-0.42 -0.55,-0.92 -0.92,-1.05 -2.22,-1.81 -3.47,-1.81 -0.87,0 -2.18,0.47 -2.18,2.53 0,1.16 0.59,3.77 1.47,5.06 0.96,1.38 2.23,1.99 3.28,1.99 v 0.86 c -3.5,0 -7,-3.43 -7,-6.96 0,-2.54 1.87,-4.34 4.35,-4.34 2.05,0 3.65,1.45 3.94,1.75 0.46,-1.22 1.83,-1.75 2.94,-1.75 1,0 1.67,0.58 2.2,1.41 0.64,0.96 0.99,2.28 0.99,2.46 0,0.35 -0.42,0.35 -0.52,0.35 -0.45,0 -0.47,-0.16 -0.59,-0.55 -0.46,-1.84 -1.09,-2.81 -1.97,-2.81 -0.7,0 -1,0.55 -1,1.31 0,0.38 0.25,1.33 0.41,2 z"
           id="path4998"
           style="fill:#000000;stroke-width:0" /><path
           d="m 541.49,430.6 -0.01,-0.06 -0.02,-0.06 -0.01,-0.07 -0.02,-0.07 -0.02,-0.06 -0.01,-0.07 -0.04,-0.15 -0.03,-0.14 -0.04,-0.15 -0.03,-0.14 -0.02,-0.07 -0.02,-0.07 -0.01,-0.07 -0.02,-0.07 -0.01,-0.06 -0.02,-0.06 -0.01,-0.06 -0.01,-0.06 -0.02,-0.05 -0.01,-0.05 -0.01,-0.05 0,-0.04 -0.01,-0.04 -0.01,-0.04 0,-0.03 -0.01,-0.02 0,-0.02 0,-0.01 0,-0.01 c 0,-0.54 0.44,-0.87 0.92,-0.87 0.38,0 0.92,0.2 1.19,0.83 0.03,0.12 0.33,1.29 0.48,1.93 0.85,3.38 0.85,3.43 0.89,3.52 0.33,0.67 2.11,4.16 5.16,4.16 1.22,0 1.75,-0.68 1.75,-1.78 0,-1.43 -1.05,-3.99 -1.62,-5.41 -0.13,-0.3 -0.25,-0.63 -0.25,-1.05 0,-1.29 1.25,-2.2 2.71,-2.2 2.66,0 4.04,3.25 4.04,3.87 0,0.35 -0.43,0.35 -0.52,0.35 -0.44,0 -0.45,-0.1 -0.61,-0.58 -0.47,-1.48 -1.61,-2.78 -2.81,-2.78 -0.56,0 -0.75,0.39 -0.75,0.94 0,0.53 0.11,0.78 0.33,1.32 0.42,1 1.57,3.83 1.57,5.21 0,1.84 -1.32,2.97 -3.68,2.97 -2.28,0 -3.85,-1.38 -4.72,-2.47 -0.13,2.04 -2.11,2.47 -3.03,2.47 -2.5,0 -3.22,-3.82 -3.22,-3.86 0,-0.36 0.4,-0.36 0.53,-0.36 0.42,0 0.47,0.15 0.56,0.48 0.38,1.44 0.96,2.88 2,2.88 0.85,0 1.02,-0.8 1.02,-1.32 0,-0.34 -0.25,-1.29 -0.39,-1.93 -0.19,-0.68 -0.42,-1.71 -0.55,-2.25 z"
           id="path5000"
           style="fill:#000000;stroke-width:0" /><path
           d="m 489.83,414.34 0,0 0,0.01 0,0 0,0.01 0.01,0 0,0.01 0,0 0,0.01 0.01,0.01 0,0 0,0.02 0.01,0.02 0,0.02 0.01,0.02 0,0.02 0.01,0.02 0.01,0.02 0,0.02 0.01,0.03 0.01,0.04 0.01,0.05 0.01,0.02 0,0.03 0.01,0.02 0,0.02 0.01,0.02 0,0.02 0.01,0.01 0,0.02 0,0.01 0,0 0,0.01 0,0.01 0.01,0 0,0.01 0,0 0,0.01 0,0 0,0 0,0.01 0,0 c 0,0.18 -0.14,0.5 -0.56,0.5 -0.69,0 -3.58,-0.28 -4.46,-0.36 -0.28,-0.03 -0.76,-0.07 -0.76,-0.8 0,-0.48 0.48,-0.48 0.9,-0.48 1.68,0 1.68,-0.25 1.68,-0.54 0,-0.23 -0.08,-0.45 -0.15,-0.76 l -4.92,-19.72 c -0.17,-0.62 -0.17,-0.69 -0.17,-0.77 0,-0.51 0.42,-1.1 1.19,-1.1 0.39,0 1.05,0.17 1.44,0.9 0.09,0.2 0.4,1.45 0.57,2.19 l 0.82,3.11 c 0.09,0.51 0.45,1.84 0.54,2.36 0.36,1.33 0.36,1.36 1.05,2.48 1.13,1.71 2.86,3.69 5.58,3.69 1.95,0 2.06,-1.61 2.06,-2.44 0,-2.09 -1.5,-5.95 -2.06,-7.42 -0.38,-0.98 -0.52,-1.3 -0.52,-1.89 0,-1.84 1.53,-2.98 3.3,-2.98 3.5,0 5.03,4.79 5.03,5.32 0,0.46 -0.45,0.46 -0.56,0.46 -0.49,0 -0.53,-0.21 -0.66,-0.6 -0.81,-2.78 -2.34,-4.22 -3.7,-4.22 -0.73,0 -0.88,0.49 -0.88,1.22 0,0.8 0.19,1.25 0.82,2.83 0.4,1.08 1.84,4.77 1.84,6.72 0,0.56 0,2.03 -1.3,3.03 -0.59,0.45 -1.59,0.94 -3.23,0.94 -2.55,0 -4.39,-1.39 -5.67,-2.89 z"
           id="path5002"
           style="fill:#000000;stroke-width:0" /></g>    </g>
    <g
       transform="translate(73.488597,-56.063466)"
       id="g5108">
      <g
         transform="matrix(0.18857143,0,0,-0.18857143,-33,171)"
         id="g5110"
         xml:space="preserve"
         style="font-style:normal;font-variant:normal;font-weight:normal;font-stretch:normal;letter-spacing:normal;word-spacing:normal;text-anchor:start;fill:none;stroke:#000000;stroke-linecap:butt;stroke-linejoin:miter;stroke-miterlimit:10.43299961;stroke-opacity:1;stroke-dasharray:none;stroke-dashoffset:0"><path
           d="m 478.19,431.11 0,0.31 -0.01,0.34 -0.02,0.36 -0.02,0.37 -0.03,0.39 -0.04,0.39 -0.04,0.41 -0.06,0.41 -0.07,0.42 -0.07,0.43 -0.09,0.42 -0.1,0.43 -0.12,0.42 -0.12,0.42 -0.14,0.41 -0.16,0.41 -0.17,0.4 -0.18,0.38 -0.2,0.37 -0.22,0.36 -0.23,0.34 -0.25,0.32 -0.28,0.3 -0.29,0.27 -0.31,0.25 -0.16,0.12 -0.17,0.1 -0.17,0.1 -0.18,0.1 -0.18,0.08 -0.19,0.08 -0.19,0.07 -0.2,0.06 -0.21,0.05 -0.21,0.05 -0.22,0.03 -0.22,0.02 -0.23,0.02 -0.23,0 -0.05,-1.09 c 2.44,0 2.73,-3.19 2.73,-6.03 0,-2.44 -0.39,-4.99 -1.59,-9.92 h -10.41 c 0.85,3.2 1.85,7.18 3.83,10.72 1.36,2.43 3.19,5.23 5.44,5.23 l 0.05,1.09 c -6.92,0 -14.6,-14.04 -14.6,-25.45 0,-4.69 1.44,-10.22 5.99,-10.22 v 1.1 c -1.66,0 -2.71,1.45 -2.71,6.07 0,2.1 0.3,4.99 1.6,9.86 h 10.37 c -0.54,-2.28 -1.59,-6.51 -3.5,-10.11 -1.73,-3.39 -3.62,-5.82 -5.76,-5.82 v -1.1 c 7.01,0 14.59,14.3 14.59,25.46 z"
           id="path5112"
           style="fill:#000000;stroke-width:0" /><path
           d="m 488.55,435.67 0,0.01 0,0.02 0.01,0.02 0,0.03 0.01,0.02 0.01,0.04 0,0.03 0.01,0.04 0.01,0.04 0.01,0.05 0.01,0.04 0.02,0.05 0.01,0.06 0.01,0.05 0.03,0.12 0.03,0.13 0.04,0.13 0.03,0.14 0.04,0.15 0.04,0.15 0.04,0.15 0.08,0.32 0.08,0.31 0.04,0.15 0.04,0.15 0.04,0.14 0.03,0.14 0.04,0.13 0.03,0.13 0.03,0.12 0.02,0.05 0.01,0.05 0.01,0.05 0.01,0.05 0.02,0.04 0.01,0.04 0.01,0.04 0.01,0.03 0.01,0.03 0,0.03 0.01,0.02 0.01,0.02 0,0.01 0,0.01 c 0.08,0.28 1.08,2.02 2.21,2.86 0.37,0.27 1.31,0.97 2.81,0.97 0.34,0 1.22,-0.03 1.92,-0.48 -1.12,-0.32 -1.53,-1.3 -1.53,-1.93 0,-0.76 0.59,-1.28 1.39,-1.28 0.8,0 1.95,0.66 1.95,2.13 0,1.81 -1.92,2.53 -3.7,2.53 -1.81,0 -3.38,-0.72 -4.91,-2.47 -0.62,2.13 -2.75,2.47 -3.59,2.47 -1.28,0 -2.16,-0.8 -2.72,-1.77 -0.8,-1.35 -1.28,-3.39 -1.28,-3.56 0,-0.45 0.48,-0.45 0.59,-0.45 0.49,0 0.52,0.11 0.77,1.05 0.52,2.12 1.19,3.76 2.55,3.76 0.9,0 1.14,-0.76 1.14,-1.7 0,-0.67 -0.32,-1.95 -0.57,-2.89 -0.23,-0.96 -0.57,-2.38 -0.76,-3.14 l -1.11,-4.47 c -0.14,-0.44 -0.34,-1.31 -0.34,-1.42 0,-0.77 0.62,-1.11 1.18,-1.11 0.52,0 1.22,0.31 1.49,1 0.08,0.22 0.45,1.75 0.67,2.62 z"
           id="path5114"
           style="fill:#000000;stroke-width:0" /><path
           d="m 506.68,439.7 0.01,0.02 0,0.01 0.01,0.02 0,0.01 0.01,0.02 0,0.01 0.01,0.02 0,0.01 0.01,0.02 0,0.03 0.01,0.02 0.01,0.02 0,0.02 0.01,0.02 0,0.02 0.01,0.01 0,0.02 0,0.02 0.01,0.01 0,0.01 0,0.02 0,0.01 0.01,0.01 0,0.01 0,0.01 0,0.01 0,0.02 0,0.02 0,0.03 0,0.02 0,0.01 0,0.01 c 0,0.42 -0.37,0.42 -0.78,0.4 l -3.06,-0.23 c -0.42,-0.01 -0.47,-0.05 -0.59,-0.14 -0.11,-0.13 -0.18,-0.42 -0.18,-0.58 0,-0.42 0.39,-0.42 0.74,-0.42 0.03,0 0.48,0 0.86,-0.05 0.47,-0.04 0.5,-0.12 0.5,-0.32 0,-0.15 -0.25,-1.13 -0.41,-1.68 l -2.06,-8.34 c -0.13,-0.52 -0.2,-0.92 -0.2,-1.47 0,-2.59 1.84,-4.31 4.23,-4.31 l 0.05,0.86 c -1.07,0 -2.28,0.64 -2.28,2.65 0,0.8 0.18,1.6 0.39,2.44 0.07,0.31 0.5,1.92 0.51,2.08 0.08,0.25 1.83,2.41 3.92,2.41 1.07,0 2.19,-0.64 2.19,-2.54 0,-0.92 -0.47,-3.26 -1.26,-4.7 -0.85,-1.48 -2.25,-2.34 -3.47,-2.34 h 0 l -0.05,-0.86 c 3.61,0 7.03,3.5 7.03,6.95 0,2.47 -1.8,4.35 -4.36,4.35 -1.05,0 -2.26,-0.41 -3.5,-1.35 z"
           id="path5116"
           style="fill:#000000;stroke-width:0" /><path
           d="m 528.95,431.44 0.01,0.05 0.01,0.05 0.02,0.05 0.01,0.06 0.02,0.05 0.01,0.06 0.03,0.12 0.03,0.12 0.03,0.13 0.03,0.12 0.03,0.12 0.02,0.05 0.01,0.06 0.02,0.05 0.01,0.06 0.01,0.05 0.01,0.05 0.01,0.04 0.01,0.05 0.01,0.04 0.01,0.03 0.01,0.04 0,0.03 0.01,0.02 0,0.03 0,0.02 0,0 0,0.01 c 0,0.42 -0.31,0.88 -0.92,0.88 -0.43,0 -1.05,-0.3 -1.23,-1 -0.49,0.64 -1.42,1.5 -3,1.5 v -0.86 c 1.12,0 2.2,-0.68 2.59,-2.16 l -1.14,-4.69 c -0.11,-0.37 -0.11,-0.42 -0.55,-0.92 -0.92,-1.05 -2.22,-1.81 -3.47,-1.81 -0.87,0 -2.18,0.47 -2.18,2.53 0,1.15 0.59,3.76 1.47,5.06 0.96,1.38 2.23,1.99 3.28,1.99 v 0.86 c -3.5,0 -7,-3.43 -7,-6.96 0,-2.54 1.87,-4.34 4.36,-4.34 2.04,0 3.64,1.45 3.94,1.75 0.45,-1.22 1.82,-1.75 2.93,-1.75 1,0 1.67,0.58 2.2,1.4 0.65,0.97 0.99,2.29 0.99,2.47 0,0.35 -0.42,0.35 -0.52,0.35 -0.45,0 -0.47,-0.16 -0.59,-0.55 -0.45,-1.84 -1.09,-2.81 -1.97,-2.81 -0.7,0 -1,0.54 -1,1.31 0,0.37 0.25,1.33 0.41,2 z"
           id="path5118"
           style="fill:#000000;stroke-width:0" /><path
           d="m 546.5,432.78 -0.04,-0.01 -0.04,-0.01 -0.04,-0.02 -0.03,-0.01 -0.04,-0.02 -0.03,-0.01 -0.07,-0.03 -0.06,-0.04 -0.06,-0.04 -0.05,-0.03 -0.06,-0.04 -0.04,-0.05 -0.05,-0.04 -0.04,-0.04 -0.04,-0.05 -0.03,-0.04 -0.04,-0.05 -0.03,-0.05 -0.02,-0.04 -0.03,-0.05 -0.02,-0.05 -0.02,-0.04 -0.02,-0.05 -0.01,-0.04 -0.02,-0.05 -0.01,-0.04 -0.01,-0.04 -0.01,-0.04 -0.01,-0.04 0,-0.04 -0.01,-0.03 0,-0.04 0,-0.03 0,-0.02 0,-0.03 c 0,-0.62 0.51,-0.89 0.93,-0.89 0.3,0 1.33,0.22 1.33,1.53 0,1.67 -1.97,2.21 -3.84,2.21 -4.21,0 -5,-2.58 -5,-3.47 0,-0.89 0.51,-1.43 0.97,-1.77 0.68,-0.5 1.43,-0.59 2.76,-0.83 1.56,-0.25 3.31,-0.51 3.31,-1.79 0,-0.02 0,-2.58 -4.59,-2.58 -0.94,0 -2.48,0.06 -3.28,0.84 0.89,0.2 1.3,0.92 1.3,1.52 0,0.7 -0.53,1.01 -1.08,1.01 -0.85,0 -1.6,-0.67 -1.6,-1.78 0,-2.45 3.89,-2.45 4.61,-2.45 5.11,0 5.99,2.95 5.99,3.97 0,2.23 -2.74,2.67 -4.03,2.89 -1.78,0.26 -3,0.47 -3,1.5 0,0.01 0,2.08 3.59,2.08 0.64,0 1.97,-0.05 2.61,-0.74 z"
           id="path5120"
           style="fill:#000000;stroke-width:0" /><path
           d="m 557.65,428.97 -0.13,0.84 h -1.43 c 1.12,3.47 4.18,3.71 4.93,3.71 1.24,0 2.33,-0.49 2.33,-1.41 0,-2.3 -4.65,-2.3 -5.83,-2.3 l 0.13,-0.84 c 2.51,0 6.98,0.3 6.98,3.15 0,1.27 -1.29,2.26 -3.59,2.26 -3.39,0 -7.69,-2.27 -7.69,-6.41 0,-2.27 1.47,-4.89 5.25,-4.89 0.47,0 2.47,0 4.14,0.65 1.66,0.65 2.66,1.8 2.66,2.07 0,0.2 -0.33,0.58 -0.55,0.58 -0.12,0 -0.14,-0.04 -0.55,-0.43 -1.21,-1.37 -3.43,-2.01 -5.67,-2.01 -2.04,0 -3.01,1.26 -3.01,3.14 0,0.23 0,0.89 0.25,1.89 z"
           id="path5122"
           style="fill:#000000;stroke-width:0" /><path
           d="m 489.83,414.34 0,0 0,0.01 0,0 0,0.01 0.01,0 0,0.01 0,0 0,0.01 0.01,0.01 0,0 0,0.02 0.01,0.02 0,0.02 0.01,0.02 0,0.02 0.01,0.02 0.01,0.02 0,0.02 0.01,0.03 0.01,0.04 0.01,0.05 0.01,0.02 0,0.03 0.01,0.02 0,0.02 0.01,0.02 0,0.02 0.01,0.01 0,0.02 0,0.01 0,0 0,0.01 0,0.01 0.01,0 0,0.01 0,0 0,0.01 0,0 0,0 0,0.01 0,0 c 0,0.18 -0.14,0.5 -0.56,0.5 -0.69,0 -3.58,-0.28 -4.46,-0.36 -0.28,-0.03 -0.76,-0.07 -0.76,-0.8 0,-0.48 0.48,-0.48 0.9,-0.48 1.68,0 1.68,-0.25 1.68,-0.54 0,-0.23 -0.08,-0.45 -0.15,-0.76 l -4.92,-19.72 c -0.17,-0.62 -0.17,-0.69 -0.17,-0.77 0,-0.51 0.42,-1.1 1.19,-1.1 0.39,0 1.05,0.17 1.44,0.9 0.09,0.2 0.4,1.45 0.57,2.19 l 0.82,3.11 c 0.09,0.51 0.45,1.84 0.54,2.36 0.36,1.33 0.36,1.36 1.05,2.48 1.13,1.71 2.86,3.69 5.58,3.69 1.95,0 2.06,-1.61 2.06,-2.44 0,-2.09 -1.5,-5.95 -2.06,-7.42 -0.38,-0.98 -0.52,-1.3 -0.52,-1.89 0,-1.84 1.53,-2.98 3.3,-2.98 3.5,0 5.03,4.79 5.03,5.32 0,0.46 -0.45,0.46 -0.56,0.46 -0.49,0 -0.53,-0.21 -0.66,-0.6 -0.81,-2.78 -2.34,-4.22 -3.7,-4.22 -0.73,0 -0.88,0.49 -0.88,1.22 0,0.8 0.19,1.25 0.82,2.83 0.4,1.08 1.84,4.77 1.84,6.72 0,0.56 0,2.03 -1.3,3.03 -0.59,0.45 -1.59,0.94 -3.23,0.94 -2.55,0 -4.39,-1.39 -5.67,-2.89 z"
           id="path5124"
           style="fill:#000000;stroke-width:0" /></g>    </g>
    <g
       transform="translate(2.2728432,-12.626907)"
       id="g5239">
      <g
         transform="matrix(0.18857143,0,0,-0.18857143,-33,171)"
         id="g5518"
         xml:space="preserve"
         style="font-style:normal;font-variant:normal;font-weight:normal;font-stretch:normal;letter-spacing:normal;word-spacing:normal;text-anchor:start;fill:none;stroke:#000000;stroke-linecap:butt;stroke-linejoin:miter;stroke-miterlimit:10.43299961;stroke-opacity:1;stroke-dasharray:none;stroke-dashoffset:0"><path
           d="m 479.29,417.96 -0.01,0.37 -0.01,0.35 -0.02,0.35 -0.02,0.34 -0.06,0.65 -0.09,0.63 -0.11,0.59 -0.14,0.57 -0.15,0.54 -0.18,0.51 -0.19,0.49 -0.21,0.45 -0.23,0.44 -0.25,0.4 -0.26,0.38 -0.27,0.36 -0.29,0.33 -0.3,0.31 -0.31,0.29 -0.31,0.26 -0.33,0.24 -0.34,0.22 -0.34,0.2 -0.35,0.18 -0.35,0.16 -0.36,0.14 -0.35,0.12 -0.36,0.11 -0.37,0.09 -0.36,0.06 -0.36,0.06 -0.35,0.04 -0.35,0.02 -0.35,0 -0.05,-1.09 c 4.94,0 4.94,-6.53 4.94,-10.41 0,-1.84 0,-4.73 0.09,-5.57 h 0 c -4.37,-3.85 -8.22,-4.39 -10.2,-4.39 -3,0 -4.49,2.25 -4.49,5.43 0,2.44 1.3,7.82 2.89,10.36 2.33,3.64 5.04,4.58 6.77,4.58 l 0.05,1.09 c -6.82,0 -13.39,-7.12 -13.39,-14.14 0,-4.64 2.98,-8.42 8.06,-8.42 3.14,0 6.73,1.14 10.51,4.19 0.66,-2.64 2.3,-4.19 4.54,-4.19 2.64,0 4.18,2.74 4.18,3.53 0,0.36 -0.29,0.5 -0.59,0.5 -0.36,0 -0.5,-0.14 -0.66,-0.5 -0.89,-2.43 -2.68,-2.43 -2.78,-2.43 -1.54,0 -1.54,3.89 -1.54,5.07 0,1.05 0,1.16 0.5,1.75 4.68,5.88 5.73,11.66 5.73,11.71 0,0.11 -0.06,0.5 -0.61,0.5 -0.5,0 -0.5,-0.14 -0.75,-1.05 -0.89,-3.14 -2.53,-6.92 -4.87,-9.86 z"
           id="path5242"
           style="fill:#000000;stroke-width:0" /><path
           d="m 516.08,409.32 0,0.28 -0.02,0.28 -0.02,0.26 -0.03,0.26 -0.04,0.25 -0.05,0.24 -0.06,0.24 -0.07,0.22 -0.08,0.22 -0.09,0.21 -0.1,0.2 -0.11,0.19 -0.12,0.19 -0.13,0.17 -0.14,0.17 -0.15,0.16 -0.17,0.15 -0.17,0.14 -0.18,0.13 -0.2,0.12 -0.21,0.12 -0.22,0.1 -0.23,0.09 -0.24,0.09 -0.26,0.07 -0.26,0.07 -0.28,0.05 -0.29,0.05 -0.31,0.03 -0.32,0.03 -0.32,0.02 -0.35,0 c -2.76,0 -4.64,-1.48 -5.57,-3.23 -0.71,2.47 -2.58,3.23 -5.13,3.23 -2.86,0 -4.7,-1.56 -5.69,-3.37 h -0.03 v 3.37 l -5.12,-0.37 v -1.25 c 2.34,0 2.62,-0.25 2.62,-1.96 v -9.03 c 0,-1.5 -0.36,-1.5 -2.62,-1.5 v -1.25 c 0.07,0 2.51,0.14 3.98,0.14 1.28,0 3.69,-0.11 4,-0.14 v 1.25 c -2.26,0 -2.61,0 -2.61,1.5 v 6.28 c 0,3.66 2.89,5.36 5.19,5.36 2.44,0 2.75,-1.92 2.75,-3.69 v -7.95 c 0,-1.5 -0.34,-1.5 -2.61,-1.5 v -1.25 c 0.08,0 2.52,0.14 3.97,0.14 1.3,0 3.7,-0.11 4.01,-0.14 v 1.25 c -2.26,0 -2.62,0 -2.62,1.5 v 6.28 c 0,3.66 2.91,5.36 5.2,5.36 2.44,0 2.75,-1.92 2.75,-3.69 v -7.95 c 0,-1.5 -0.34,-1.5 -2.61,-1.5 v -1.25 c 0.07,0 2.5,0.14 3.97,0.14 1.28,0 3.69,-0.11 4,-0.14 v 1.25 c -2.26,0 -2.61,0 -2.61,1.5 z"
           id="path5244"
           style="fill:#000000;stroke-width:0" /><path
           d="m 535.75,408.11 0,0.33 -0.01,0.33 0,0.32 -0.02,0.31 -0.01,0.15 -0.01,0.15 -0.02,0.14 -0.02,0.15 -0.02,0.14 -0.03,0.14 -0.03,0.14 -0.04,0.13 -0.04,0.14 -0.04,0.13 -0.05,0.13 -0.06,0.13 -0.06,0.13 -0.07,0.13 -0.07,0.13 -0.08,0.12 -0.09,0.13 -0.1,0.12 -0.1,0.12 -0.11,0.13 -0.12,0.12 -0.13,0.12 -0.14,0.12 -0.14,0.12 c -1.42,1.19 -3.1,1.75 -5.16,1.75 -3.31,0 -5.64,-1.27 -5.64,-3.39 0,-1.11 0.76,-1.71 1.67,-1.71 0.94,0 1.64,0.71 1.64,1.65 0,0.59 -0.28,1.32 -1.22,1.59 1.25,0.87 3.27,0.87 3.49,0.87 1.93,0 4.06,-1.28 4.06,-4.21 v -1.08 -0.91 -3.45 c 0,-3.35 -2.92,-4.28 -4.48,-4.28 -1.78,0 -3.46,1.18 -3.46,2.89 0,1.92 1.68,4.61 7.94,4.84 v 0.91 c -1.91,-0.07 -4.2,-0.17 -6.75,-1.11 -3.14,-1.16 -4.11,-3.06 -4.11,-4.64 0,-3 3.63,-3.86 6.1,-3.86 2.78,0 4.42,1.56 5.15,2.92 0.14,-1.42 1.08,-2.75 2.69,-2.75 0.06,0 3.44,0 3.44,3.31 v 1.91 h -1.18 v -1.88 c 0,-0.34 0,-2.01 -1.29,-2.01 -1.28,0 -1.28,1.62 -1.28,2.08 z"
           id="path5246"
           style="fill:#000000;stroke-width:0" /><path
           d="m 551.81,406.57 0,0.01 0,0 -0.01,0 0,0 0,0.01 -0.01,0 0,0 0,0.01 -0.01,0 0,0.01 -0.01,0 -0.01,0.02 -0.01,0.01 -0.01,0.01 -0.01,0.01 -0.01,0.01 -0.01,0.02 -0.02,0.01 -0.01,0.02 -0.02,0.03 -0.03,0.03 -0.01,0.01 -0.01,0.01 -0.01,0.02 -0.01,0.01 -0.01,0.01 -0.01,0.02 -0.01,0.01 -0.01,0.01 0,0 -0.01,0.01 0,0 0,0.01 0,0 -0.01,0 0,0.01 0,0 0,0 0,0 0,0.01 0,0 c 0,0.11 2.29,2.58 2.61,2.89 1.21,1.36 2.43,2.69 5.2,2.72 v 1.25 c -0.99,-0.07 -1.99,-0.14 -2.94,-0.14 -1.05,0 -2.4,0.03 -3.43,0.14 v -1.25 c 0.57,-0.11 0.68,-0.49 0.68,-0.8 0,-0.08 0,-0.59 -0.51,-1.19 l -2.44,-2.75 -2.89,3.3 c -0.36,0.39 -0.39,0.56 -0.39,0.7 0,0.52 0.48,0.74 0.93,0.74 v 1.25 c -1.28,-0.11 -2.6,-0.14 -3.9,-0.14 -1.03,0 -2.36,0.03 -3.38,0.14 v -1.25 c 1.61,0 2.52,0 3.43,-1.05 l 4.34,-5.02 c 0.05,-0.03 0.28,-0.31 0.28,-0.34 0,-0.11 -2.61,-2.97 -2.95,-3.36 -1.3,-1.39 -2.49,-2.67 -5.27,-2.75 v -1.25 c 1.05,0.06 1.82,0.14 2.89,0.14 1.05,0 2.44,-0.03 3.49,-0.14 v 1.25 c -0.43,0.08 -0.71,0.31 -0.71,0.81 0,0.66 0.4,1.11 0.96,1.71 l 2.44,2.68 3.03,-3.45 c 0.65,-0.73 0.65,-0.81 0.65,-1.01 0,-0.69 -0.8,-0.74 -0.93,-0.74 v -1.25 c 0.31,0.03 2.82,0.14 3.93,0.14 1.11,0 2.24,-0.03 3.35,-0.14 v 1.25 c -2.33,0 -2.61,0.22 -3.43,1.13 z"
           id="path5248"
           style="fill:#000000;stroke-width:0" /><path
           d="m 582.18,398.97 0.01,0.04 0.02,0.03 0.01,0.04 0.02,0.03 0.02,0.03 0.02,0.03 0.02,0.03 0.02,0.03 0.02,0.03 0.02,0.02 0.03,0.02 0.03,0.02 0.03,0.02 0.04,0.02 0.04,0.02 0.04,0.01 0.04,0.02 0.05,0.01 0.05,0.02 0.06,0.01 0.06,0.01 0.07,0.01 0.04,0 0.03,0.01 0.04,0 0.04,0 0.04,0.01 0.04,0 0.05,0 0.04,0.01 0.05,0 0.05,0 0.05,0 0.05,0.01 0.05,0 0.06,0 0.05,0 0.06,0 0.06,0 0.07,0 0.06,0.01 0.07,0 c 0.32,0 0.75,0 0.75,0.7 0,0.25 -0.21,0.42 -0.43,0.42 -0.5,0 -1.04,-0.08 -1.54,-0.08 -0.55,0 -1.13,-0.01 -1.68,-0.01 -0.75,0 -1.47,0.01 -2.22,0.01 -0.68,0 -1.46,0.08 -2.15,0.08 -0.19,0 -0.66,0 -0.66,-0.69 0,-0.43 0.38,-0.43 0.8,-0.43 h 0.53 c 0.52,0 1.47,-0.02 1.97,-0.13 0.17,-0.05 0.31,-0.06 0.31,-0.3 0,-0.17 -0.5,-2.15 -0.56,-2.45 -0.66,-2.03 -3.84,-2.34 -5.49,-2.34 -3.38,0 -7.03,1.42 -7.03,5.65 0,2.32 1.1,5.33 3.25,7.3 2.61,2.44 5.75,2.91 7.49,2.91 3.22,0 5.22,-2.1 5.22,-4.93 0,-0.56 -0.06,-0.67 -0.06,-0.82 0,-0.38 0.35,-0.38 0.57,-0.38 0.47,0 0.47,0.08 0.6,0.55 l 1.58,6.36 c 0,0.01 0,0.34 -0.41,0.34 -0.14,0 -0.17,-0.03 -0.47,-0.3 l -1.72,-1.71 c -0.05,-0.05 -0.22,-0.24 -0.28,-0.24 -0.05,0 -0.05,0.03 -0.11,0.11 -0.56,0.58 -2.05,2.14 -5.28,2.14 -6.81,0 -13.14,-5.33 -13.14,-10.81 0,-3.77 3.09,-7.3 8.95,-7.3 0.89,0 2.27,0.05 3.58,0.38 1.83,0.42 2.67,1.14 3.01,1.51 0.3,-0.51 1.04,-1.34 1.33,-1.34 0.07,0 0.25,0.08 0.32,0.25 0.06,0.22 0.37,1.56 0.48,1.92 z"
           id="path5250"
           style="fill:#000000;stroke-width:0" /><path
           d="m 616.4,408.61 0.02,0.07 0.01,0.07 0.02,0.07 0.02,0.06 0.02,0.06 0.02,0.06 0.02,0.05 0.02,0.05 0.03,0.05 0.02,0.04 0.03,0.05 0.04,0.04 0.03,0.03 0.04,0.04 0.05,0.03 0.05,0.03 0.05,0.02 0.06,0.03 0.06,0.02 0.07,0.02 0.08,0.02 0.04,0.01 0.05,0.01 0.04,0.01 0.05,0 0.05,0.01 0.05,0 0.05,0.01 0.05,0.01 0.06,0 0.06,0.01 0.06,0 0.06,0 0.07,0.01 0.06,0 0.07,0 0.07,0 0.08,0.01 0.08,0 0.08,0 0.08,0 0.08,0 0.09,0 c 0.64,0 0.69,0 0.8,0.08 0.14,0.15 0.21,0.45 0.21,0.62 0,0.42 -0.37,0.42 -0.79,0.42 h -3.77 c -0.54,0 -0.81,0 -1.19,-0.5 l -10.34,-14.25 -3.19,14.08 c -0.14,0.64 -0.29,0.67 -0.97,0.67 h -3.98 c -0.5,0 -0.87,0 -0.87,-0.7 0,-0.42 0.29,-0.42 0.92,-0.42 0.25,0 1.08,0 1.59,-0.14 0,-0.31 0,-0.36 -0.08,-0.63 l -3.08,-12.32 c -0.17,-0.68 -0.4,-1.63 -2.71,-1.68 -0.21,0 -0.63,-0.03 -0.63,-0.7 0,-0.22 0.2,-0.42 0.42,-0.42 0.46,0 0.97,0.08 1.42,0.08 0.47,0 0.96,0.01 1.43,0.01 0.5,0 0.97,-0.01 1.47,-0.01 0.45,0 0.96,-0.08 1.42,-0.08 0.33,0 0.59,0.17 0.59,0.7 0,0.42 -0.37,0.42 -0.64,0.42 -1.25,0.02 -1.72,0.35 -1.72,0.94 0,0.17 0.05,0.33 0.1,0.58 l 3.26,13.11 h 0.03 l 3.41,-15.03 c 0.09,-0.42 0.17,-0.72 0.64,-0.72 0.25,0 0.55,0.09 0.91,0.58 l 11.12,15.36 0.03,-0.02 -3.47,-13.86 c -0.18,-0.75 -0.25,-0.94 -2.14,-0.94 -0.62,0 -1.01,0 -1.01,-0.7 0,-0.2 0.17,-0.42 0.45,-0.42 0.52,0 1.11,0.08 1.66,0.08 0.56,0 1.12,0.01 1.7,0.01 0.58,0 1.14,-0.01 1.72,-0.01 0.54,0 1.17,-0.08 1.72,-0.08 0.14,0 0.62,0 0.62,0.7 0,0.42 -0.36,0.42 -0.83,0.42 -0.04,0 -0.64,0 -1.06,0.05 -0.62,0.05 -0.66,0.08 -0.66,0.27 0,0.06 0,0.11 0.08,0.36 z"
           id="path5252"
           style="fill:#000000;stroke-width:0" /><path
           d="m 640.31,410.88 -0.01,0.04 -0.01,0.05 -0.01,0.04 -0.01,0.05 -0.01,0.04 -0.01,0.04 -0.01,0.03 -0.01,0.04 -0.01,0.03 -0.02,0.03 -0.01,0.03 -0.02,0.03 -0.01,0.02 -0.02,0.03 -0.02,0.02 -0.02,0.02 -0.02,0.02 -0.02,0.01 -0.02,0.02 -0.03,0.02 -0.03,0.01 -0.02,0.01 -0.03,0.01 -0.04,0.01 -0.03,0.01 -0.04,0.01 -0.04,0 -0.04,0.01 -0.04,0 -0.04,0 -0.05,0 -0.05,0 c -0.59,0 -0.75,-0.2 -1,-0.58 l -9.77,-14.15 c -1.03,-1.52 -1.9,-1.91 -3.53,-1.99 -0.47,-0.03 -0.47,-0.67 -0.47,-0.7 0,-0.34 0.3,-0.42 0.39,-0.42 0.36,0 0.79,0.08 1.13,0.08 0.42,0 0.84,0.01 1.26,0.01 0.49,0 0.93,-0.01 1.38,-0.01 0.45,0 0.97,-0.08 1.42,-0.08 0.17,0 0.6,0 0.6,0.7 0,0.39 -0.38,0.42 -0.47,0.42 -0.21,0 -1.18,0.05 -1.18,0.64 0,0.3 0.3,0.72 0.47,0.97 l 1.83,2.67 c 0.13,0.16 0.14,0.18 0.61,0.18 h 7.56 l -0.2,1.12 h -7.08 l 5.56,8.06 1.52,-8.06 0.2,-1.12 c 0.05,-0.3 0.06,-0.42 0.14,-0.72 0.08,-0.46 0.58,-2.94 0.58,-3.19 0,-0.55 -1.58,-0.55 -1.7,-0.55 -0.38,0 -0.77,0 -0.77,-0.7 0,-0.25 0.18,-0.42 0.46,-0.42 0.51,0 1.1,0.08 1.65,0.08 0.61,0 1.17,0.01 1.78,0.01 0.52,0 1.07,-0.01 1.6,-0.01 0.5,0 1.06,-0.08 1.56,-0.08 0.42,0 0.59,0.3 0.59,0.7 0,0.42 -0.39,0.42 -0.73,0.42 -1.66,0 -1.67,0.18 -1.78,0.72 z"
           id="path5254"
           style="fill:#000000;stroke-width:0" /></g>    </g>
    <g
       transform="translate(22.98097,-53.285547)"
       id="g5378">
      <g
         transform="matrix(0.18857143,0,0,-0.18857143,-33,171)"
         id="g5380"
         xml:space="preserve"
         style="font-style:normal;font-variant:normal;font-weight:normal;font-stretch:normal;letter-spacing:normal;word-spacing:normal;text-anchor:start;fill:none;stroke:#000000;stroke-linecap:butt;stroke-linejoin:miter;stroke-miterlimit:10.43299961;stroke-opacity:1;stroke-dasharray:none;stroke-dashoffset:0"><path
           d="m 479.29,417.96 -0.01,0.37 -0.01,0.35 -0.02,0.35 -0.02,0.34 -0.06,0.65 -0.09,0.63 -0.11,0.59 -0.14,0.57 -0.15,0.54 -0.18,0.51 -0.19,0.49 -0.21,0.45 -0.23,0.44 -0.25,0.4 -0.26,0.38 -0.27,0.36 -0.29,0.33 -0.3,0.31 -0.31,0.29 -0.31,0.26 -0.33,0.24 -0.34,0.22 -0.34,0.2 -0.35,0.18 -0.35,0.16 -0.36,0.14 -0.35,0.12 -0.36,0.11 -0.37,0.09 -0.36,0.06 -0.36,0.06 -0.35,0.04 -0.35,0.02 -0.35,0 -0.05,-1.09 c 4.94,0 4.94,-6.53 4.94,-10.41 0,-1.84 0,-4.73 0.09,-5.57 l 0,0 c -4.37,-3.85 -8.22,-4.39 -10.2,-4.39 -3,0 -4.49,2.25 -4.49,5.43 0,2.44 1.3,7.82 2.89,10.36 2.33,3.64 5.04,4.58 6.77,4.58 l 0.05,1.09 c -6.82,0 -13.39,-7.12 -13.39,-14.14 0,-4.64 2.98,-8.42 8.06,-8.42 3.14,0 6.73,1.14 10.51,4.19 0.66,-2.64 2.3,-4.19 4.54,-4.19 2.64,0 4.18,2.74 4.18,3.53 0,0.36 -0.29,0.5 -0.59,0.5 -0.36,0 -0.5,-0.14 -0.66,-0.5 -0.89,-2.43 -2.68,-2.43 -2.78,-2.43 -1.54,0 -1.54,3.89 -1.54,5.07 0,1.05 0,1.16 0.5,1.75 4.68,5.88 5.73,11.66 5.73,11.71 0,0.11 -0.06,0.5 -0.61,0.5 -0.5,0 -0.5,-0.14 -0.75,-1.05 -0.89,-3.14 -2.53,-6.92 -4.87,-9.86 z"
           id="path5382"
           style="fill:#000000;stroke-width:0" /><path
           d="m 506.05,411.42 0,0.12 0,0.12 -0.01,0.12 -0.01,0.11 -0.01,0.11 -0.01,0.11 -0.01,0.1 -0.02,0.1 -0.02,0.1 -0.02,0.09 -0.02,0.09 -0.02,0.09 -0.03,0.08 -0.02,0.08 -0.03,0.07 -0.03,0.08 -0.03,0.07 -0.03,0.07 -0.03,0.06 -0.03,0.06 -0.04,0.06 -0.03,0.06 -0.04,0.05 -0.03,0.06 -0.04,0.05 -0.04,0.04 -0.08,0.09 -0.07,0.08 -0.08,0.07 -0.08,0.06 -0.08,0.05 -0.08,0.05 -0.08,0.04 -0.07,0.04 -0.07,0.02 -0.07,0.03 -0.07,0.02 -0.06,0.01 -0.06,0.02 -0.05,0 -0.04,0.01 -0.04,0 -0.03,0.01 -0.02,0 -0.02,0 c -0.91,0 -1.87,-0.96 -1.87,-1.86 0,-0.58 0.34,-0.86 0.59,-1.08 0.59,-0.48 1.28,-1.39 1.28,-2.78 0,-1.56 -2.3,-9.06 -6.44,-9.06 -2.82,0 -2.82,2.51 -2.82,3.11 0,1.59 0.62,3.54 1.92,6.78 0.28,0.73 0.48,1.26 0.48,1.86 0,1.81 -1.53,2.98 -3.31,2.98 -3.49,0 -5.05,-4.76 -5.05,-5.33 0,-0.45 0.49,-0.45 0.6,-0.45 0.48,0 0.51,0.17 0.62,0.56 0.83,2.86 2.33,4.25 3.72,4.25 0.59,0 0.87,-0.39 0.87,-1.22 0,-0.79 -0.28,-1.53 -0.62,-2.32 -1.5,-3.88 -1.88,-5.38 -1.88,-6.63 0,-3.45 2.72,-4.56 5.36,-4.56 5.86,0 8.3,10.14 8.3,13 z"
           id="path5384"
           style="fill:#000000;stroke-width:0" /><path
           d="m 519.85,420.54 0,0.05 0,0.06 -0.01,0.05 -0.01,0.06 -0.01,0.05 -0.01,0.06 -0.02,0.05 -0.02,0.06 -0.02,0.06 -0.02,0.05 -0.03,0.06 -0.03,0.05 -0.03,0.06 -0.04,0.05 -0.04,0.05 -0.04,0.05 -0.04,0.05 -0.05,0.05 -0.05,0.04 -0.05,0.05 -0.06,0.04 -0.06,0.03 -0.06,0.04 -0.07,0.03 -0.06,0.03 -0.08,0.03 -0.07,0.02 -0.08,0.02 -0.08,0.01 -0.08,0.01 -0.09,0.01 -0.09,0 c -0.94,0 -1.95,-0.91 -1.95,-1.92 0,-0.59 0.45,-1.33 1.4,-1.33 1,0 1.95,0.99 1.95,1.92 z"
           id="path5386"
           style="fill:#000000;stroke-width:0" /><path
           d="m 512.75,402.84 -0.06,-0.17 -0.05,-0.17 -0.03,-0.08 -0.02,-0.09 -0.03,-0.08 -0.02,-0.09 -0.02,-0.09 -0.02,-0.09 -0.02,-0.1 -0.02,-0.09 -0.01,-0.1 0,-0.05 -0.01,-0.05 0,-0.06 0,-0.05 -0.01,-0.05 0,-0.06 c 0,-1.64 1.39,-2.95 3.3,-2.95 3.49,0 5.03,4.79 5.03,5.33 0,0.45 -0.45,0.45 -0.56,0.45 -0.48,0 -0.53,-0.2 -0.67,-0.59 -0.8,-2.79 -2.33,-4.22 -3.69,-4.22 -0.7,0 -0.87,0.45 -0.87,1.22 0,0.79 0.25,1.46 0.56,2.23 0.34,0.94 0.73,1.87 1.11,2.78 0.31,0.84 1.58,4.02 1.71,4.44 0.1,0.34 0.21,0.76 0.21,1.11 0,1.64 -1.39,2.95 -3.31,2.95 -3.46,0 -5.05,-4.73 -5.05,-5.33 0,-0.45 0.48,-0.45 0.59,-0.45 0.49,0 0.52,0.17 0.63,0.56 0.9,3 2.43,4.25 3.72,4.25 0.56,0 0.87,-0.28 0.87,-1.22 0,-0.79 -0.2,-1.32 -1.08,-3.48 z"
           id="path5388"
           style="fill:#000000;stroke-width:0" /><path
           d="m 537.61,411.86 -0.08,-0.03 -0.08,-0.02 -0.08,-0.03 -0.08,-0.02 -0.08,-0.04 -0.07,-0.03 -0.07,-0.04 -0.07,-0.04 -0.06,-0.04 -0.07,-0.04 -0.06,-0.05 -0.06,-0.05 -0.06,-0.05 -0.05,-0.05 -0.05,-0.05 -0.05,-0.06 -0.05,-0.05 -0.04,-0.06 -0.04,-0.06 -0.04,-0.06 -0.03,-0.06 -0.04,-0.06 -0.03,-0.06 -0.02,-0.06 -0.03,-0.07 -0.02,-0.06 -0.01,-0.07 -0.02,-0.06 -0.01,-0.07 -0.01,-0.06 0,-0.07 0,-0.06 c 0,-0.81 0.7,-1.12 1.15,-1.12 0.35,0 1.67,0.21 1.67,1.98 0,2.27 -2.5,3.03 -4.62,3.03 -5.44,0 -6.42,-4 -6.42,-5.08 0,-1.29 0.73,-2.12 1.22,-2.54 0.9,-0.71 1.53,-0.83 3.93,-1.25 0.74,-0.14 2.97,-0.57 2.97,-2.3 0,-0.59 -0.39,-1.92 -1.84,-2.8 -1.36,-0.76 -3.08,-0.76 -3.49,-0.76 -1.4,0 -3.39,0.31 -4.19,1.47 1.16,0.14 1.93,1 1.93,1.98 0,0.87 -0.63,1.28 -1.36,1.28 -1.02,0 -2.03,-0.8 -2.03,-2.33 0,-2.09 2.23,-3.37 5.61,-3.37 6.42,0 7.6,4.39 7.6,5.75 0,3.2 -3.53,3.83 -4.81,4.08 -0.31,0.06 -1.19,0.2 -1.39,0.26 -1.3,0.25 -1.92,0.99 -1.92,1.75 0,0.8 0.62,1.74 1.39,2.24 0.94,0.59 2.16,0.65 2.75,0.65 0.73,0 2.55,-0.11 3.31,-1.29 z"
           id="path5390"
           style="fill:#000000;stroke-width:0" /></g>    </g>
    <g
       transform="translate(105.81348,32.32488)"
       id="g6269">
      <g
         transform="matrix(0.18857143,0,0,-0.18857143,-33,171)"
         id="g6271"
         xml:space="preserve"
         style="font-style:normal;font-variant:normal;font-weight:normal;font-stretch:normal;letter-spacing:normal;word-spacing:normal;text-anchor:start;fill:none;stroke:#000000;stroke-linecap:butt;stroke-linejoin:miter;stroke-miterlimit:10.43299961;stroke-opacity:1;stroke-dasharray:none;stroke-dashoffset:0"><path
           d="m 459.91,409.14 -0.02,-0.07 -0.01,-0.08 -0.02,-0.07 -0.01,-0.08 -0.04,-0.16 -0.04,-0.16 -0.03,-0.16 -0.04,-0.16 -0.04,-0.16 -0.04,-0.16 -0.01,-0.08 -0.02,-0.07 -0.02,-0.07 -0.01,-0.07 -0.02,-0.07 -0.01,-0.07 -0.01,-0.06 -0.01,-0.06 -0.01,-0.06 -0.01,-0.05 -0.01,-0.05 -0.01,-0.04 -0.01,-0.04 0,-0.04 0,-0.03 0,-0.02 c 0,-0.89 0.7,-1.35 1.43,-1.35 0.61,0 1.5,0.39 1.85,1.39 0.11,0.21 1.8,6.99 2,7.88 0.39,1.64 1.3,5.12 1.59,6.48 0.21,0.64 1.6,2.99 2.78,4.08 0.41,0.34 1.85,1.64 4,1.64 1.28,0 2.03,-0.59 2.08,-0.59 -1.48,-0.25 -2.58,-1.46 -2.58,-2.74 0,-0.79 0.55,-1.75 1.89,-1.75 1.35,0 2.74,1.14 2.74,2.94 0,1.75 -1.6,3.23 -4.13,3.23 -3.25,0 -5.43,-2.43 -6.39,-3.82 -0.39,2.23 -2.18,3.82 -4.53,3.82 -2.28,0 -3.23,-1.93 -3.69,-2.82 -0.89,-1.71 -1.54,-4.69 -1.54,-4.85 0,-0.5 0.5,-0.5 0.61,-0.5 0.5,0 0.54,0.07 0.84,1.16 0.84,3.53 1.84,5.92 3.64,5.92 0.84,0 1.55,-0.39 1.55,-2.28 0,-1.05 -0.16,-1.61 -0.8,-4.19 z"
           id="path6273"
           style="fill:#000000;stroke-width:0" /></g>    </g>
    <text
       x="134.35028"
       y="126.94924"
       id="text3052"
       xml:space="preserve"
       style="font-size:8px;font-style:normal;font-variant:normal;font-weight:normal;font-stretch:normal;text-align:start;line-height:125%;letter-spacing:0px;word-spacing:0px;writing-mode:lr-tb;text-anchor:start;fill:#000000;fill-opacity:1;stroke:none;font-family:Sans;-inkscape-font-specification:Sans"><tspan
         x="134.35028"
         y="126.94924"
         id="tspan3054">robot</tspan></text>
    <text
       x="185.89908"
       y="27.653713"
       id="text3052-3"
       xml:space="preserve"
       style="font-size:8px;font-style:normal;font-variant:normal;font-weight:normal;font-stretch:normal;text-align:start;line-height:125%;letter-spacing:0px;word-spacing:0px;writing-mode:lr-tb;text-anchor:start;fill:#000000;fill-opacity:1;stroke:none;font-family:Sans;-inkscape-font-specification:Sans"><tspan
         x="185.89908"
         y="27.653713"
         id="tspan3077">human</tspan></text>
    <g
       transform="translate(163.64471,-66.670068)"
       id="g3158">
      <g
         transform="matrix(0.18857143,0,0,-0.18857143,-33,171)"
         id="g3160"
         xml:space="preserve"
         style="font-style:normal;font-variant:normal;font-weight:normal;font-stretch:normal;letter-spacing:normal;word-spacing:normal;text-anchor:start;fill:none;stroke:#000000;stroke-linecap:butt;stroke-linejoin:miter;stroke-miterlimit:10.43299961;stroke-opacity:1;stroke-dasharray:none;stroke-dashoffset:0"><path
           d="m 469.82,440.23 0,0 0,0.01 0,0 0,0.01 -0.01,0.02 0,0.01 0,0.02 0,0.02 0,0.02 -0.01,0.02 0,0.02 -0.01,0.02 -0.01,0.02 -0.01,0.03 -0.01,0.02 -0.01,0.03 -0.01,0.02 -0.02,0.03 -0.02,0.02 -0.02,0.02 -0.02,0.03 -0.01,0.01 -0.01,0.01 -0.02,0.01 -0.01,0.01 -0.02,0.01 -0.01,0.01 -0.02,0.01 -0.01,0.01 -0.02,0.01 -0.02,0.01 -0.02,0 -0.02,0.01 -0.02,0.01 -0.02,0 -0.02,0.01 -0.02,0.01 -0.03,0 -0.02,0 -0.03,0.01 -0.02,0 -0.03,0 -0.03,0.01 -0.02,0 -0.03,0 c -1.16,0 -4.79,-0.41 -6.08,-0.5 -0.41,-0.05 -0.96,-0.1 -0.96,-1 0,-0.6 0.46,-0.6 1.21,-0.6 2.39,0 2.48,-0.34 2.48,-0.84 l -0.15,-1 -7.22,-28.7 c -0.21,-0.69 -0.21,-0.8 -0.21,-1.1 0,-1.14 1,-1.39 1.46,-1.39 0.79,0 1.59,0.6 1.84,1.3 l 0.94,3.78 1.11,4.48 c 0.29,1.1 0.59,2.19 0.84,3.35 0.1,0.3 0.5,1.94 0.55,2.23 0.14,0.46 1.69,3.25 3.39,4.6 1.09,0.79 2.64,1.73 4.78,1.73 2.14,0 2.69,-1.69 2.69,-3.48 0,-2.69 -1.89,-8.13 -3.1,-11.16 -0.39,-1.16 -0.64,-1.75 -0.64,-2.75 0,-2.33 1.74,-4.08 4.08,-4.08 4.69,0 6.53,7.27 6.53,7.67 0,0.5 -0.45,0.5 -0.59,0.5 -0.5,0 -0.5,-0.15 -0.75,-0.9 -0.75,-2.64 -2.34,-6.17 -5.08,-6.17 -0.86,0 -1.2,0.5 -1.2,1.64 0,1.25 0.45,2.45 0.9,3.54 0.8,2.14 3.04,8.07 3.04,10.96 0,3.23 -2,5.32 -5.74,5.32 -3.14,0 -5.53,-1.53 -7.37,-3.82 z"
           id="path3162"
           style="fill:#000000;stroke-width:0" /></g>    </g>
    <text
       x="118.12901"
       y="7.6993032"
       id="text3052-6"
       xml:space="preserve"
       style="font-size:8px;font-style:normal;font-variant:normal;font-weight:normal;font-stretch:normal;text-align:start;line-height:125%;letter-spacing:0px;word-spacing:0px;writing-mode:lr-tb;text-anchor:start;fill:#000000;fill-opacity:1;stroke:none;font-family:Sans;-inkscape-font-specification:Sans"><tspan
         x="118.12901"
         y="7.6993032"
         id="tspan3054-6"
         style="font-size:6.25px">direction</tspan><tspan
         x="118.12901"
         y="15.511803"
         id="tspan4706"
         style="font-size:6.25px">of motion</tspan></text>
    <text
       x="80.196404"
       y="28.511299"
       transform="matrix(0.963196,-0.26880005,0.26880005,0.963196,0,0)"
       id="text3052-6-7"
       xml:space="preserve"
       style="font-size:8px;font-style:normal;font-variant:normal;font-weight:normal;font-stretch:normal;text-align:start;line-height:125%;letter-spacing:0px;word-spacing:0px;writing-mode:lr-tb;text-anchor:start;fill:#000000;fill-opacity:1;stroke:none;font-family:Sans;-inkscape-font-specification:Sans"><tspan
         x="80.196404"
         y="28.511299"
         id="tspan3054-6-2"
         style="font-size:5px;text-align:center;text-anchor:middle">head</tspan><tspan
         x="80.196404"
         y="34.761299"
         id="tspan4706-9"
         style="font-size:5px;text-align:center;text-anchor:middle">direction</tspan></text>
    <text
       x="77.46122"
       y="151.20625"
       transform="matrix(0.96771535,-0.25204563,0.25204563,0.96771535,0,0)"
       id="text3052-2"
       xml:space="preserve"
       style="font-size:8px;font-style:normal;font-variant:normal;font-weight:normal;font-stretch:normal;text-align:start;line-height:125%;letter-spacing:0px;word-spacing:0px;writing-mode:lr-tb;text-anchor:start;fill:#000000;fill-opacity:1;stroke:none;font-family:Sans;-inkscape-font-specification:Sans"><tspan
         x="77.46122"
         y="151.20625"
         id="tspan3054-9"
         style="font-size:5.625px">head</tspan></text>
    <text
       x="10.04269"
       y="59.217079"
       id="text3052-5"
       xml:space="preserve"
       style="font-size:8px;font-style:normal;font-variant:normal;font-weight:normal;font-stretch:normal;text-align:start;line-height:125%;letter-spacing:0px;word-spacing:0px;writing-mode:lr-tb;text-anchor:start;fill:#000000;fill-opacity:1;stroke:none;font-family:Sans;-inkscape-font-specification:Sans"><tspan
         x="10.04269"
         y="59.217079"
         id="tspan3054-0">IPS</tspan></text>
  </g>
</svg>
