<?xml version="1.0" encoding="UTF-8" standalone="no"?>
<!-- Created with Inkscape (http://www.inkscape.org/) -->

<svg
   xmlns:dc="http://purl.org/dc/elements/1.1/"
   xmlns:cc="http://creativecommons.org/ns#"
   xmlns:rdf="http://www.w3.org/1999/02/22-rdf-syntax-ns#"
   xmlns:svg="http://www.w3.org/2000/svg"
   xmlns="http://www.w3.org/2000/svg"
   version="1.1"
   width="377.33334"
   height="377.33334"
   viewBox="0 0 377.33334 377.33334"
   id="svg2"
   xml:space="preserve"><metadata
     id="metadata8"><rdf:RDF><cc:Work
         rdf:about=""><dc:format>image/svg+xml</dc:format><dc:type
           rdf:resource="http://purl.org/dc/dcmitype/StillImage" /><dc:title></dc:title></cc:Work></rdf:RDF></metadata><defs
     id="defs6"><clipPath
       id="clipPath48"><path
         d="M 32.71,34.33 H 277.49 V 277.49 H 32.71 z"
         id="path46" /></clipPath><filter
       x="0"
       y="0"
       width="1"
       height="1"
       color-interpolation-filters="sRGB"
       id="filter3226"><feColorMatrix
         result="fbSourceGraphic"
         values="1"
         type="saturate"
         id="feColorMatrix3228" /><feColorMatrix
         values="-1 0 0 0 1 0 -1 0 0 1 0 0 -1 0 1 0 0 0 1 0 "
         in="fbSourceGraphic"
         id="feColorMatrix3230" /></filter></defs><g
     id="g5201"><g
       transform="matrix(1.3333333,0,0,-1.3333333,0,377.33333)"
       id="g12"
       style="filter:url(#filter3226)" /><g
       transform="matrix(1.3333333,0,0,-1.3333333,0,377.33333)"
       id="g14"
       style="filter:url(#filter3226)" /><g
       transform="matrix(1.3333333,0,0,-1.3333333,0,377.33333)"
       id="g16"
       style="filter:url(#filter3226)" /><g
       transform="matrix(1.3333333,0,0,-1.3333333,0,377.33333)"
       id="g18"
       style="filter:url(#filter3226)" /><g
       transform="matrix(1.3333333,0,0,-1.3333333,0,377.33333)"
       id="g20"
       style="filter:url(#filter3226)" /><g
       transform="matrix(1.3333333,0,0,-1.3333333,0,377.33333)"
       id="g22"
       style="filter:url(#filter3226)" /><g
       transform="matrix(1.3333333,0,0,-1.3333333,0,377.33333)"
       id="g24"
       style="filter:url(#filter3226)" /><g
       transform="matrix(1.3333333,0,0,-1.3333333,0,377.33333)"
       id="g26"
       style="filter:url(#filter3226)" /><g
       transform="matrix(1.3333333,0,0,-1.3333333,0,377.33333)"
       id="g28"
       style="filter:url(#filter3226)" /><g
       transform="matrix(1.3333333,0,0,-1.3333333,0,377.33333)"
       id="g30"
       style="filter:url(#filter3226)" /><g
       transform="matrix(1.3333333,0,0,-1.3333333,0,377.33333)"
       id="g32"
       style="fill:none;filter:url(#filter3226)"><path
         d="M 0,0 H 283.46 V 283.46 H 0 z"
         id="path34"
         style="fill:none;stroke:#ffffff;stroke-width:1.07000005;stroke-linecap:round;stroke-linejoin:round;stroke-miterlimit:10;stroke-opacity:1;stroke-dasharray:none" /></g><g
       transform="matrix(1.3333333,0,0,-1.3333333,0,377.33333)"
       id="g36"
       style="filter:url(#filter3226)" /><g
       transform="matrix(1.3333333,0,0,-1.3333333,0,377.33333)"
       id="g38"
       style="filter:url(#filter3226)" /><g
       transform="matrix(1.3333333,0,0,-1.3333333,0,377.33333)"
       id="g40"
       style="filter:url(#filter3226)" /><path
       d="M 32.71,34.33 H 277.49 V 277.49 H 32.71 z"
       transform="matrix(1.3333333,0,0,-1.3333333,0,377.33333)"
       id="path50"
       style="fill:none;stroke:none;filter:url(#filter3226)" /><path
       d="M 32.71,100.64 H 277.49"
       transform="matrix(1.3333333,0,0,-1.3333333,0,377.33333)"
       id="path52"
       style="fill:none;stroke:#fafafa;stroke-width:1.07000005;stroke-linecap:butt;stroke-linejoin:round;stroke-miterlimit:10;stroke-opacity:1;stroke-dasharray:none;filter:url(#filter3226)" /><path
       d="M 32.71,211.17 H 277.49"
       transform="matrix(1.3333333,0,0,-1.3333333,0,377.33333)"
       id="path54"
       style="fill:none;stroke:#fafafa;stroke-width:1.07000005;stroke-linecap:butt;stroke-linejoin:round;stroke-miterlimit:10;stroke-opacity:1;stroke-dasharray:none;filter:url(#filter3226)" /><path
       d="M 32.71,45.38 H 277.49"
       transform="matrix(1.3333333,0,0,-1.3333333,0,377.33333)"
       id="path56"
       style="fill:none;stroke:#e5e5e5;stroke-width:0.43000001;stroke-linecap:butt;stroke-linejoin:round;stroke-miterlimit:10;stroke-opacity:1;stroke-dasharray:none;filter:url(#filter3226)" /><path
       d="M 32.71,155.91 H 277.49"
       transform="matrix(1.3333333,0,0,-1.3333333,0,377.33333)"
       id="path58"
       style="fill:none;stroke:#e5e5e5;stroke-width:0.43000001;stroke-linecap:butt;stroke-linejoin:round;stroke-miterlimit:10;stroke-opacity:1;stroke-dasharray:none;filter:url(#filter3226)" /><path
       d="M 32.71,266.43 H 277.49"
       transform="matrix(1.3333333,0,0,-1.3333333,0,377.33333)"
       id="path60"
       style="fill:none;stroke:#e5e5e5;stroke-width:0.43000001;stroke-linecap:butt;stroke-linejoin:round;stroke-miterlimit:10;stroke-opacity:1;stroke-dasharray:none;filter:url(#filter3226)" /><path
       d="M 78.6,34.33 V 277.49"
       transform="matrix(1.3333333,0,0,-1.3333333,0,377.33333)"
       id="path62"
       style="fill:none;stroke:#e5e5e5;stroke-width:0.43000001;stroke-linecap:butt;stroke-linejoin:round;stroke-miterlimit:10;stroke-opacity:1;stroke-dasharray:none;filter:url(#filter3226)" /><path
       d="M 155.1,34.33 V 277.49"
       transform="matrix(1.3333333,0,0,-1.3333333,0,377.33333)"
       id="path64"
       style="fill:none;stroke:#e5e5e5;stroke-width:0.43000001;stroke-linecap:butt;stroke-linejoin:round;stroke-miterlimit:10;stroke-opacity:1;stroke-dasharray:none;filter:url(#filter3226)" /><path
       d="M 231.59,34.33 V 277.49"
       transform="matrix(1.3333333,0,0,-1.3333333,0,377.33333)"
       id="path66"
       style="fill:none;stroke:#e5e5e5;stroke-width:0.43000001;stroke-linecap:butt;stroke-linejoin:round;stroke-miterlimit:10;stroke-opacity:1;stroke-dasharray:none;filter:url(#filter3226)" /><path
       d="m 78.6,266.43 v 0"
       transform="matrix(1.3333333,0,0,-1.3333333,0,377.33333)"
       id="path68"
       style="fill:none;stroke:#333333;stroke-width:1.07000005;stroke-linecap:butt;stroke-linejoin:round;stroke-miterlimit:10;stroke-opacity:1;stroke-dasharray:none;filter:url(#filter3226)" /><path
       d="M 78.6,155.91 V 45.38"
       transform="matrix(1.3333333,0,0,-1.3333333,0,377.33333)"
       id="path70"
       style="fill:none;stroke:#333333;stroke-width:1.07000005;stroke-linecap:butt;stroke-linejoin:round;stroke-miterlimit:10;stroke-opacity:1;stroke-dasharray:none;filter:url(#filter3226)" /><path
       d="M 49.92,266.43 V 155.91 h 57.37 v 110.52 z"
       transform="matrix(1.3333333,0,0,-1.3333333,0,377.33333)"
       id="path72"
       style="fill:none;stroke:#333333;stroke-width:1.07000005;stroke-linecap:round;stroke-linejoin:round;stroke-miterlimit:10;stroke-opacity:1;stroke-dasharray:none;filter:url(#filter3226)" /><path
       d="m 155.1,266.43 v 0"
       transform="matrix(1.3333333,0,0,-1.3333333,0,377.33333)"
       id="path76"
       style="fill:none;stroke:#333333;stroke-width:1.07000005;stroke-linecap:butt;stroke-linejoin:round;stroke-miterlimit:10;stroke-opacity:1;stroke-dasharray:none;filter:url(#filter3226)" /><path
       d="m 155.1,45.38 v 0"
       transform="matrix(1.3333333,0,0,-1.3333333,0,377.33333)"
       id="path78"
       style="fill:none;stroke:#333333;stroke-width:1.07000005;stroke-linecap:butt;stroke-linejoin:round;stroke-miterlimit:10;stroke-opacity:1;stroke-dasharray:none;filter:url(#filter3226)" /><path
       d="M 126.41,266.43 V 45.38 h 57.37 v 221.05 z"
       transform="matrix(1.3333333,0,0,-1.3333333,0,377.33333)"
       id="path80"
       style="fill:none;stroke:#333333;stroke-width:1.07000005;stroke-linecap:round;stroke-linejoin:round;stroke-miterlimit:10;stroke-opacity:1;stroke-dasharray:none;filter:url(#filter3226)" /><path
       d="M 231.59,155.91 V 266.43"
       transform="matrix(1.3333333,0,0,-1.3333333,0,377.33333)"
       id="path84"
       style="fill:none;stroke:#333333;stroke-width:1.07000005;stroke-linecap:butt;stroke-linejoin:round;stroke-miterlimit:10;stroke-opacity:1;stroke-dasharray:none;filter:url(#filter3226)" /><path
       d="m 231.59,45.38 v 0"
       transform="matrix(1.3333333,0,0,-1.3333333,0,377.33333)"
       id="path86"
       style="fill:none;stroke:#333333;stroke-width:1.07000005;stroke-linecap:butt;stroke-linejoin:round;stroke-miterlimit:10;stroke-opacity:1;stroke-dasharray:none;filter:url(#filter3226)" /><path
       d="M 202.91,155.91 V 45.38 h 57.37 v 110.53 z"
       transform="matrix(1.3333333,0,0,-1.3333333,0,377.33333)"
       id="path88"
       style="fill:none;stroke:#333333;stroke-width:1.07000005;stroke-linecap:round;stroke-linejoin:round;stroke-miterlimit:10;stroke-opacity:1;stroke-dasharray:none;filter:url(#filter3226)" /><path
       d="M 32.71,34.33 H 277.49 V 277.49 H 32.71 z"
       transform="matrix(1.3333333,0,0,-1.3333333,0,377.33333)"
       id="path92"
       style="fill:none;stroke:#7f7f7f;stroke-width:1.07000005;stroke-linecap:round;stroke-linejoin:round;stroke-miterlimit:10;stroke-opacity:1;stroke-dasharray:none;filter:url(#filter3226)" /><g
       transform="matrix(1.3333333,0,0,-1.3333333,0,377.33333)"
       id="g94"
       style="filter:url(#filter3226)" /><g
       transform="matrix(1.3333333,0,0,-1.3333333,0,377.33333)"
       id="g96"
       style="filter:url(#filter3226)" /><g
       transform="matrix(1.3333333,0,0,-1.3333333,0,377.33333)"
       id="g98"
       style="filter:url(#filter3226)" /><g
       transform="matrix(1.3333333,0,0,-1.3333333,0,377.33333)"
       id="g100"
       style="filter:url(#filter3226)" /><g
       transform="matrix(1.3333333,0,0,-1.3333333,0,377.33333)"
       id="g102"
       style="filter:url(#filter3226)" /><g
       transform="matrix(1.3333333,0,0,-1.3333333,0,377.33333)"
       id="g104"
       style="filter:url(#filter3226)"><text
         transform="matrix(1,0,0,-1,21.77,41.79)"
         id="text108"
         style="font-size:10px;font-variant:normal;font-weight:normal;writing-mode:lr-tb;fill:#000000;fill-opacity:1;fill-rule:nonzero;stroke:none;font-family:Helvetica;-inkscape-font-specification:Helvetica"><tspan
           x="0"
           y="0"
           id="tspan106">1</tspan></text>
<text
         transform="matrix(1,0,0,-1,21.77,152.32)"
         id="text112"
         style="font-size:10px;font-variant:normal;font-weight:normal;writing-mode:lr-tb;fill:#000000;fill-opacity:1;fill-rule:nonzero;stroke:none;font-family:Helvetica;-inkscape-font-specification:Helvetica"><tspan
           x="0"
           y="0"
           id="tspan110">2</tspan></text>
<text
         transform="matrix(1,0,0,-1,21.77,262.84)"
         id="text116"
         style="font-size:10px;font-variant:normal;font-weight:normal;writing-mode:lr-tb;fill:#000000;fill-opacity:1;fill-rule:nonzero;stroke:none;font-family:Helvetica;-inkscape-font-specification:Helvetica"><tspan
           x="0"
           y="0"
           id="tspan114">3</tspan></text>
</g><g
       transform="matrix(1.3333333,0,0,-1.3333333,0,377.33333)"
       id="g118"
       style="filter:url(#filter3226)" /><g
       transform="matrix(1.3333333,0,0,-1.3333333,0,377.33333)"
       id="g120"
       style="filter:url(#filter3226)" /><g
       transform="matrix(1.3333333,0,0,-1.3333333,0,377.33333)"
       id="g122"
       style="filter:url(#filter3226)"><path
         d="m 29.72,45.38 h 2.99"
         id="path124"
         style="fill:none;stroke:#000000;stroke-width:1.07000005;stroke-linecap:butt;stroke-linejoin:round;stroke-miterlimit:10;stroke-opacity:1;stroke-dasharray:none" /><path
         d="m 29.72,155.91 h 2.99"
         id="path126"
         style="fill:none;stroke:#000000;stroke-width:1.07000005;stroke-linecap:butt;stroke-linejoin:round;stroke-miterlimit:10;stroke-opacity:1;stroke-dasharray:none" /><path
         d="m 29.72,266.43 h 2.99"
         id="path128"
         style="fill:none;stroke:#000000;stroke-width:1.07000005;stroke-linecap:butt;stroke-linejoin:round;stroke-miterlimit:10;stroke-opacity:1;stroke-dasharray:none" /></g><g
       transform="matrix(1.3333333,0,0,-1.3333333,0,377.33333)"
       id="g130"
       style="filter:url(#filter3226)" /><g
       transform="matrix(1.3333333,0,0,-1.3333333,0,377.33333)"
       id="g132"
       style="filter:url(#filter3226)" /><g
       transform="matrix(1.3333333,0,0,-1.3333333,0,377.33333)"
       id="g134"
       style="filter:url(#filter3226)" /><g
       transform="matrix(1.3333333,0,0,-1.3333333,0,377.33333)"
       id="g136"
       style="filter:url(#filter3226)" /><g
       transform="matrix(1.3333333,0,0,-1.3333333,0,377.33333)"
       id="g138"
       style="filter:url(#filter3226)" /><g
       transform="matrix(1.3333333,0,0,-1.3333333,0,377.33333)"
       id="g140"
       style="filter:url(#filter3226)" /><g
       transform="matrix(1.3333333,0,0,-1.3333333,0,377.33333)"
       id="g142"
       style="filter:url(#filter3226)" /><g
       transform="matrix(1.3333333,0,0,-1.3333333,0,377.33333)"
       id="g144"
       style="filter:url(#filter3226)" /><g
       transform="matrix(1.3333333,0,0,-1.3333333,0,377.33333)"
       id="g146"
       style="filter:url(#filter3226)"><path
         d="m 78.6,31.34 v 2.99"
         id="path148"
         style="fill:none;stroke:#000000;stroke-width:1.07000005;stroke-linecap:butt;stroke-linejoin:round;stroke-miterlimit:10;stroke-opacity:1;stroke-dasharray:none" /><path
         d="m 155.1,31.34 v 2.99"
         id="path150"
         style="fill:none;stroke:#000000;stroke-width:1.07000005;stroke-linecap:butt;stroke-linejoin:round;stroke-miterlimit:10;stroke-opacity:1;stroke-dasharray:none" /><path
         d="m 231.59,31.34 v 2.99"
         id="path152"
         style="fill:none;stroke:#000000;stroke-width:1.07000005;stroke-linecap:butt;stroke-linejoin:round;stroke-miterlimit:10;stroke-opacity:1;stroke-dasharray:none" /></g><g
       transform="matrix(1.3333333,0,0,-1.3333333,0,377.33333)"
       id="g154"
       style="filter:url(#filter3226)" /><g
       transform="matrix(1.3333333,0,0,-1.3333333,0,377.33333)"
       id="g156"
       style="filter:url(#filter3226)"><text
         transform="matrix(1,0,0,-1,75.27,21.77)"
         id="text160"
         style="font-size:10px;font-variant:normal;font-weight:normal;writing-mode:lr-tb;fill:#000000;fill-opacity:1;fill-rule:nonzero;stroke:none;font-family:Helvetica;-inkscape-font-specification:Helvetica"><tspan
           x="0"
           y="0"
           id="tspan158">A</tspan></text>
<text
         transform="matrix(1,0,0,-1,151.76,21.77)"
         id="text164"
         style="font-size:10px;font-variant:normal;font-weight:normal;writing-mode:lr-tb;fill:#000000;fill-opacity:1;fill-rule:nonzero;stroke:none;font-family:Helvetica;-inkscape-font-specification:Helvetica"><tspan
           x="0"
           y="0"
           id="tspan162">B</tspan></text>
<text
         transform="matrix(1,0,0,-1,227.98,21.77)"
         id="text168"
         style="font-size:10px;font-variant:normal;font-weight:normal;writing-mode:lr-tb;fill:#000000;fill-opacity:1;fill-rule:nonzero;stroke:none;font-family:Helvetica;-inkscape-font-specification:Helvetica"><tspan
           x="0"
           y="0"
           id="tspan166">C</tspan></text>
</g><g
       transform="matrix(1.3333333,0,0,-1.3333333,0,377.33333)"
       id="g170"
       style="filter:url(#filter3226)" /><g
       transform="matrix(1.3333333,0,0,-1.3333333,0,377.33333)"
       id="g172"
       style="filter:url(#filter3226)" /><g
       transform="matrix(1.3333333,0,0,-1.3333333,0,377.33333)"
       id="g174"
       style="filter:url(#filter3226)" /><g
       transform="matrix(1.3333333,0,0,-1.3333333,0,377.33333)"
       id="g176"
       style="filter:url(#filter3226)" /><g
       transform="matrix(1.3333333,0,0,-1.3333333,0,377.33333)"
       id="g178"
       style="filter:url(#filter3226)" /><g
       transform="matrix(1.3333333,0,0,-1.3333333,0,377.33333)"
       id="g180"
       style="filter:url(#filter3226)"><text
         transform="matrix(1,0,0,-1,88.52,8.37)"
         id="text184"
         style="font-size:12px;font-variant:normal;font-weight:normal;writing-mode:lr-tb;fill:#000000;fill-opacity:1;fill-rule:nonzero;stroke:none;font-family:Helvetica;-inkscape-font-specification:Helvetica"><tspan
           x="0 8.6639996 15.336 22.007999 28.68 32.015999 40.02 46.692001 53.363998 59.796001 65.795998 68.459999 75.132004 79.127998 82.463997 91.127998 97.800003 104.472 111.144 113.808 117.144 119.808 126.48"
           y="0"
           id="tspan182">Head Behavior Condition</tspan></text>
</g><g
       transform="matrix(1.3333333,0,0,-1.3333333,0,377.33333)"
       id="g186"
       style="filter:url(#filter3226)" /><g
       transform="matrix(1.3333333,0,0,-1.3333333,0,377.33333)"
       id="g188"
       style="filter:url(#filter3226)" /><g
       transform="matrix(1.3333333,0,0,-1.3333333,0,377.33333)"
       id="g190"
       style="filter:url(#filter3226)"><text
         transform="matrix(0,1,1,0,16.98,54.82)"
         id="text194"
         style="font-size:12px;font-variant:normal;font-weight:normal;writing-mode:lr-tb;fill:#000000;fill-opacity:1;fill-rule:nonzero;stroke:none;font-family:Helvetica;-inkscape-font-specification:Helvetica"><tspan
           x="0 7.5240002 14.196 18.672001 22.007999 24.672001 30.672001 33.335999 40.007999 46.68 53.352001 56.688 62.688 64.980003 68.316002 76.980003 83.652 90.323997 96.323997 98.987999 105.66 112.332 115.668 119.664 129.66 136.332 142.332 145.668 149.004 155.67599 158.34 164.10001 170.772 177.444 180.78 187.78799 191.12399 197.79601"
           y="0"
           id="tspan192">Participants' Ranking (Most Liked = 1)</tspan></text>
</g><g
       transform="matrix(1.3333333,0,0,-1.3333333,0,377.33333)"
       id="g196"
       style="filter:url(#filter3226)" /><g
       transform="matrix(1.3333333,0,0,-1.3333333,0,377.33333)"
       id="g198"
       style="filter:url(#filter3226)" /><g
       transform="matrix(1.3333333,0,0,-1.3333333,0,377.33333)"
       id="g200"
       style="filter:url(#filter3226)" /><g
       transform="matrix(1.3333333,0,0,-1.3333333,0,377.33333)"
       id="g202"
       style="filter:url(#filter3226)" /><g
       transform="matrix(1.3333333,0,0,-1.3333333,0,377.33333)"
       id="g204"
       style="filter:url(#filter3226)" /><rect
       width="76.884834"
       height="7.8568439"
       ry="1.3637657"
       x="66.22197"
       y="22.091751"
       id="rect5163"
       style="fill:#ffffff;fill-opacity:1;stroke:#ffffff;stroke-opacity:1" /><rect
       width="76.884834"
       height="7.8568439"
       ry="1.3637657"
       x="168.08034"
       y="165.75975"
       id="rect5163-3"
       style="fill:#ffffff;fill-opacity:1;stroke:#ffffff;stroke-width:1;stroke-opacity:1" /><rect
       width="76.884834"
       height="7.8568439"
       ry="1.3637657"
       x="270.2193"
       y="308.86655"
       id="rect5163-3-6"
       style="fill:#ffffff;fill-opacity:1;stroke:#ffffff;stroke-width:1;stroke-opacity:1" /></g></svg>