<?xml version="1.0" encoding="UTF-8" standalone="no"?>
<!-- Created with Inkscape (http://www.inkscape.org/) -->

<svg
   xmlns:dc="http://purl.org/dc/elements/1.1/"
   xmlns:cc="http://creativecommons.org/ns#"
   xmlns:rdf="http://www.w3.org/1999/02/22-rdf-syntax-ns#"
   xmlns:svg="http://www.w3.org/2000/svg"
   xmlns="http://www.w3.org/2000/svg"
   version="1.1"
   width="754.66669"
   height="377.33334"
   viewBox="0 0 754.66669 377.33334"
   id="svg2"
   xml:space="preserve"><metadata
     id="metadata8"><rdf:RDF><cc:Work
         rdf:about=""><dc:format>image/svg+xml</dc:format><dc:type
           rdf:resource="http://purl.org/dc/dcmitype/StillImage" /><dc:title></dc:title></cc:Work></rdf:RDF></metadata><defs
     id="defs6"><clipPath
       id="clipPath48"><path
         d="M 32.71,42.94 H 560.96 V 277.49 H 32.71 z"
         id="path46" /></clipPath><filter
       x="0"
       y="0"
       width="1"
       height="1"
       color-interpolation-filters="sRGB"
       id="filter3434"><feColorMatrix
         id="feColorMatrix3436"
         type="saturate"
         values="1"
         result="fbSourceGraphic" /><feColorMatrix
         id="feColorMatrix3438"
         in="fbSourceGraphic"
         values="-1 0 0 0 1 0 -1 0 0 1 0 0 -1 0 1 0 0 0 1 0 " /></filter></defs><g
     id="g6439"><path
       d="M 0,0 H 566.93 V 283.46 H 0 z"
       transform="matrix(1.3333333,0,0,-1.3333333,0,377.33333)"
       id="path34"
       style="fill:none;stroke:#ffffff;stroke-width:1.07000005;stroke-linecap:round;stroke-linejoin:round;stroke-miterlimit:10;stroke-opacity:1;stroke-dasharray:none;filter:url(#filter3434)" /><path
       d="M 32.71,42.94 H 560.96 V 277.49 H 32.71 z"
       transform="matrix(1.3333333,0,0,-1.3333333,0,377.33333)"
       id="path50"
       style="fill:none;stroke:none;filter:url(#filter3434)" /><path
       d="M 32.71,75.67 H 560.95"
       transform="matrix(1.3333333,0,0,-1.3333333,0,377.33333)"
       id="path52"
       style="fill:none;stroke:#fafafa;stroke-width:1.07000005;stroke-linecap:butt;stroke-linejoin:round;stroke-miterlimit:10;stroke-opacity:1;stroke-dasharray:none;filter:url(#filter3434)" /><path
       d="M 32.71,119.82 H 560.95"
       transform="matrix(1.3333333,0,0,-1.3333333,0,377.33333)"
       id="path54"
       style="fill:none;stroke:#fafafa;stroke-width:1.07000005;stroke-linecap:butt;stroke-linejoin:round;stroke-miterlimit:10;stroke-opacity:1;stroke-dasharray:none;filter:url(#filter3434)" /><path
       d="M 32.71,163.97 H 560.95"
       transform="matrix(1.3333333,0,0,-1.3333333,0,377.33333)"
       id="path56"
       style="fill:none;stroke:#fafafa;stroke-width:1.07000005;stroke-linecap:butt;stroke-linejoin:round;stroke-miterlimit:10;stroke-opacity:1;stroke-dasharray:none;filter:url(#filter3434)" /><path
       d="M 32.71,208.11 H 560.95"
       transform="matrix(1.3333333,0,0,-1.3333333,0,377.33333)"
       id="path58"
       style="fill:none;stroke:#fafafa;stroke-width:1.07000005;stroke-linecap:butt;stroke-linejoin:round;stroke-miterlimit:10;stroke-opacity:1;stroke-dasharray:none;filter:url(#filter3434)" /><path
       d="M 32.71,252.26 H 560.95"
       transform="matrix(1.3333333,0,0,-1.3333333,0,377.33333)"
       id="path60"
       style="fill:none;stroke:#fafafa;stroke-width:1.07000005;stroke-linecap:butt;stroke-linejoin:round;stroke-miterlimit:10;stroke-opacity:1;stroke-dasharray:none;filter:url(#filter3434)" /><path
       d="M 32.71,53.6 H 560.95"
       transform="matrix(1.3333333,0,0,-1.3333333,0,377.33333)"
       id="path62"
       style="fill:none;stroke:#e5e5e5;stroke-width:0.43000001;stroke-linecap:butt;stroke-linejoin:round;stroke-miterlimit:10;stroke-opacity:1;stroke-dasharray:none;filter:url(#filter3434)" /><path
       d="M 32.71,97.75 H 560.95"
       transform="matrix(1.3333333,0,0,-1.3333333,0,377.33333)"
       id="path64"
       style="fill:none;stroke:#e5e5e5;stroke-width:0.43000001;stroke-linecap:butt;stroke-linejoin:round;stroke-miterlimit:10;stroke-opacity:1;stroke-dasharray:none;filter:url(#filter3434)" /><path
       d="M 32.71,141.89 H 560.95"
       transform="matrix(1.3333333,0,0,-1.3333333,0,377.33333)"
       id="path66"
       style="fill:none;stroke:#e5e5e5;stroke-width:0.43000001;stroke-linecap:butt;stroke-linejoin:round;stroke-miterlimit:10;stroke-opacity:1;stroke-dasharray:none;filter:url(#filter3434)" /><path
       d="M 32.71,186.04 H 560.95"
       transform="matrix(1.3333333,0,0,-1.3333333,0,377.33333)"
       id="path68"
       style="fill:none;stroke:#e5e5e5;stroke-width:0.43000001;stroke-linecap:butt;stroke-linejoin:round;stroke-miterlimit:10;stroke-opacity:1;stroke-dasharray:none;filter:url(#filter3434)" /><path
       d="M 32.71,230.18 H 560.95"
       transform="matrix(1.3333333,0,0,-1.3333333,0,377.33333)"
       id="path70"
       style="fill:none;stroke:#e5e5e5;stroke-width:0.43000001;stroke-linecap:butt;stroke-linejoin:round;stroke-miterlimit:10;stroke-opacity:1;stroke-dasharray:none;filter:url(#filter3434)" /><path
       d="M 32.71,274.33 H 560.95"
       transform="matrix(1.3333333,0,0,-1.3333333,0,377.33333)"
       id="path72"
       style="fill:none;stroke:#e5e5e5;stroke-width:0.43000001;stroke-linecap:butt;stroke-linejoin:round;stroke-miterlimit:10;stroke-opacity:1;stroke-dasharray:none;filter:url(#filter3434)" /><path
       d="M 108.17,42.94 V 277.49"
       transform="matrix(1.3333333,0,0,-1.3333333,0,377.33333)"
       id="path74"
       style="fill:none;stroke:#e5e5e5;stroke-width:0.43000001;stroke-linecap:butt;stroke-linejoin:round;stroke-miterlimit:10;stroke-opacity:1;stroke-dasharray:none;filter:url(#filter3434)" /><path
       d="M 233.94,42.94 V 277.49"
       transform="matrix(1.3333333,0,0,-1.3333333,0,377.33333)"
       id="path76"
       style="fill:none;stroke:#e5e5e5;stroke-width:0.43000001;stroke-linecap:butt;stroke-linejoin:round;stroke-miterlimit:10;stroke-opacity:1;stroke-dasharray:none;filter:url(#filter3434)" /><path
       d="M 359.72,42.94 V 277.49"
       transform="matrix(1.3333333,0,0,-1.3333333,0,377.33333)"
       id="path78"
       style="fill:none;stroke:#e5e5e5;stroke-width:0.43000001;stroke-linecap:butt;stroke-linejoin:round;stroke-miterlimit:10;stroke-opacity:1;stroke-dasharray:none;filter:url(#filter3434)" /><path
       d="M 485.49,42.94 V 277.49"
       transform="matrix(1.3333333,0,0,-1.3333333,0,377.33333)"
       id="path80"
       style="fill:none;stroke:#e5e5e5;stroke-width:0.43000001;stroke-linecap:butt;stroke-linejoin:round;stroke-miterlimit:10;stroke-opacity:1;stroke-dasharray:none;filter:url(#filter3434)" /><path
       d="m 108.17,53.6 h 56.6 v 194.8 h -56.6 z"
       transform="matrix(1.3333333,0,0,-1.3333333,0,377.33333)"
       id="path82"
       style="fill:#cccccc;fill-opacity:1;fill-rule:nonzero;stroke:#000000;stroke-width:1.07000005;stroke-linecap:butt;stroke-linejoin:round;stroke-miterlimit:10;stroke-opacity:1;stroke-dasharray:none;filter:url(#filter3434)" /><path
       d="m 51.57,53.6 h 56.6 v 164.32 h -56.6 z"
       transform="matrix(1.3333333,0,0,-1.3333333,0,377.33333)"
       id="path84"
       style="fill:#333333;fill-opacity:1;fill-rule:nonzero;stroke:#000000;stroke-width:1.07000005;stroke-linecap:butt;stroke-linejoin:round;stroke-miterlimit:10;stroke-opacity:1;stroke-dasharray:none;filter:url(#filter3434)" /><path
       d="m 233.94,53.6 h 56.6 v 148.2 h -56.6 z"
       transform="matrix(1.3333333,0,0,-1.3333333,0,377.33333)"
       id="path86"
       style="fill:#cccccc;fill-opacity:1;fill-rule:nonzero;stroke:#000000;stroke-width:1.07000005;stroke-linecap:butt;stroke-linejoin:round;stroke-miterlimit:10;stroke-opacity:1;stroke-dasharray:none;filter:url(#filter3434)" /><path
       d="m 177.35,53.6 h 56.6 v 134.89 h -56.6 z"
       transform="matrix(1.3333333,0,0,-1.3333333,0,377.33333)"
       id="path88"
       style="fill:#333333;fill-opacity:1;fill-rule:nonzero;stroke:#000000;stroke-width:1.07000005;stroke-linecap:butt;stroke-linejoin:round;stroke-miterlimit:10;stroke-opacity:1;stroke-dasharray:none;filter:url(#filter3434)" /><path
       d="m 359.72,53.6 h 56.6 v 167.82 h -56.6 z"
       transform="matrix(1.3333333,0,0,-1.3333333,0,377.33333)"
       id="path90"
       style="fill:#cccccc;fill-opacity:1;fill-rule:nonzero;stroke:#000000;stroke-width:1.07000005;stroke-linecap:butt;stroke-linejoin:round;stroke-miterlimit:10;stroke-opacity:1;stroke-dasharray:none;filter:url(#filter3434)" /><path
       d="m 303.12,53.6 h 56.6 v 158.01 h -56.6 z"
       transform="matrix(1.3333333,0,0,-1.3333333,0,377.33333)"
       id="path92"
       style="fill:#333333;fill-opacity:1;fill-rule:nonzero;stroke:#000000;stroke-width:1.07000005;stroke-linecap:butt;stroke-linejoin:round;stroke-miterlimit:10;stroke-opacity:1;stroke-dasharray:none;filter:url(#filter3434)" /><path
       d="m 485.49,53.6 h 56.6 v 86.89 h -56.6 z"
       transform="matrix(1.3333333,0,0,-1.3333333,0,377.33333)"
       id="path94"
       style="fill:#cccccc;fill-opacity:1;fill-rule:nonzero;stroke:#000000;stroke-width:1.07000005;stroke-linecap:butt;stroke-linejoin:round;stroke-miterlimit:10;stroke-opacity:1;stroke-dasharray:none;filter:url(#filter3434)" /><path
       d="m 428.89,53.6 h 56.6 v 121.58 h -56.6 z"
       transform="matrix(1.3333333,0,0,-1.3333333,0,377.33333)"
       id="path96"
       style="fill:#333333;fill-opacity:1;fill-rule:nonzero;stroke:#000000;stroke-width:1.07000005;stroke-linecap:butt;stroke-linejoin:round;stroke-miterlimit:10;stroke-opacity:1;stroke-dasharray:none;filter:url(#filter3434)" /><path
       d="m 130.18,251.64 h 12.58"
       transform="matrix(1.3333333,0,0,-1.3333333,0,377.33333)"
       id="path98"
       style="fill:none;stroke:#000000;stroke-width:1.07000005;stroke-linecap:butt;stroke-linejoin:round;stroke-miterlimit:1;stroke-opacity:1;stroke-dasharray:none;filter:url(#filter3434)" /><path
       d="m 136.47,251.64 v -6.47"
       transform="matrix(1.3333333,0,0,-1.3333333,0,377.33333)"
       id="path100"
       style="fill:none;stroke:#000000;stroke-width:1.07000005;stroke-linecap:butt;stroke-linejoin:round;stroke-miterlimit:1;stroke-opacity:1;stroke-dasharray:none;filter:url(#filter3434)" /><path
       d="m 130.18,245.17 h 12.58"
       transform="matrix(1.3333333,0,0,-1.3333333,0,377.33333)"
       id="path102"
       style="fill:none;stroke:#000000;stroke-width:1.07000005;stroke-linecap:butt;stroke-linejoin:round;stroke-miterlimit:1;stroke-opacity:1;stroke-dasharray:none;filter:url(#filter3434)" /><path
       d="M 73.58,222.96 H 86.16"
       transform="matrix(1.3333333,0,0,-1.3333333,0,377.33333)"
       id="path104"
       style="fill:none;stroke:#000000;stroke-width:1.07000005;stroke-linecap:butt;stroke-linejoin:round;stroke-miterlimit:1;stroke-opacity:1;stroke-dasharray:none;filter:url(#filter3434)" /><path
       d="M 79.87,222.96 V 212.88"
       transform="matrix(1.3333333,0,0,-1.3333333,0,377.33333)"
       id="path106"
       style="fill:none;stroke:#000000;stroke-width:1.07000005;stroke-linecap:butt;stroke-linejoin:round;stroke-miterlimit:1;stroke-opacity:1;stroke-dasharray:none;filter:url(#filter3434)" /><path
       d="M 73.58,212.88 H 86.16"
       transform="matrix(1.3333333,0,0,-1.3333333,0,377.33333)"
       id="path108"
       style="fill:none;stroke:#000000;stroke-width:1.07000005;stroke-linecap:butt;stroke-linejoin:round;stroke-miterlimit:1;stroke-opacity:1;stroke-dasharray:none;filter:url(#filter3434)" /><path
       d="m 255.95,206.79 h 12.58"
       transform="matrix(1.3333333,0,0,-1.3333333,0,377.33333)"
       id="path110"
       style="fill:none;stroke:#000000;stroke-width:1.07000005;stroke-linecap:butt;stroke-linejoin:round;stroke-miterlimit:1;stroke-opacity:1;stroke-dasharray:none;filter:url(#filter3434)" /><path
       d="m 262.24,206.79 v -9.97"
       transform="matrix(1.3333333,0,0,-1.3333333,0,377.33333)"
       id="path112"
       style="fill:none;stroke:#000000;stroke-width:1.07000005;stroke-linecap:butt;stroke-linejoin:round;stroke-miterlimit:1;stroke-opacity:1;stroke-dasharray:none;filter:url(#filter3434)" /><path
       d="m 255.95,196.82 h 12.58"
       transform="matrix(1.3333333,0,0,-1.3333333,0,377.33333)"
       id="path114"
       style="fill:none;stroke:#000000;stroke-width:1.07000005;stroke-linecap:butt;stroke-linejoin:round;stroke-miterlimit:1;stroke-opacity:1;stroke-dasharray:none;filter:url(#filter3434)" /><path
       d="m 199.36,193.81 h 12.57"
       transform="matrix(1.3333333,0,0,-1.3333333,0,377.33333)"
       id="path116"
       style="fill:none;stroke:#000000;stroke-width:1.07000005;stroke-linecap:butt;stroke-linejoin:round;stroke-miterlimit:1;stroke-opacity:1;stroke-dasharray:none;filter:url(#filter3434)" /><path
       d="M 205.64,193.81 V 183.17"
       transform="matrix(1.3333333,0,0,-1.3333333,0,377.33333)"
       id="path118"
       style="fill:none;stroke:#000000;stroke-width:1.07000005;stroke-linecap:butt;stroke-linejoin:round;stroke-miterlimit:1;stroke-opacity:1;stroke-dasharray:none;filter:url(#filter3434)" /><path
       d="m 199.36,183.17 h 12.57"
       transform="matrix(1.3333333,0,0,-1.3333333,0,377.33333)"
       id="path120"
       style="fill:none;stroke:#000000;stroke-width:1.07000005;stroke-linecap:butt;stroke-linejoin:round;stroke-miterlimit:1;stroke-opacity:1;stroke-dasharray:none;filter:url(#filter3434)" /><path
       d="M 381.73,225.44 H 394.3"
       transform="matrix(1.3333333,0,0,-1.3333333,0,377.33333)"
       id="path122"
       style="fill:none;stroke:#000000;stroke-width:1.07000005;stroke-linecap:butt;stroke-linejoin:round;stroke-miterlimit:1;stroke-opacity:1;stroke-dasharray:none;filter:url(#filter3434)" /><path
       d="m 388.01,225.44 v -8.03"
       transform="matrix(1.3333333,0,0,-1.3333333,0,377.33333)"
       id="path124"
       style="fill:none;stroke:#000000;stroke-width:1.07000005;stroke-linecap:butt;stroke-linejoin:round;stroke-miterlimit:1;stroke-opacity:1;stroke-dasharray:none;filter:url(#filter3434)" /><path
       d="M 381.73,217.41 H 394.3"
       transform="matrix(1.3333333,0,0,-1.3333333,0,377.33333)"
       id="path126"
       style="fill:none;stroke:#000000;stroke-width:1.07000005;stroke-linecap:butt;stroke-linejoin:round;stroke-miterlimit:1;stroke-opacity:1;stroke-dasharray:none;filter:url(#filter3434)" /><path
       d="m 325.13,216.02 h 12.58"
       transform="matrix(1.3333333,0,0,-1.3333333,0,377.33333)"
       id="path128"
       style="fill:none;stroke:#000000;stroke-width:1.07000005;stroke-linecap:butt;stroke-linejoin:round;stroke-miterlimit:1;stroke-opacity:1;stroke-dasharray:none;filter:url(#filter3434)" /><path
       d="m 331.42,216.02 v -8.81"
       transform="matrix(1.3333333,0,0,-1.3333333,0,377.33333)"
       id="path130"
       style="fill:none;stroke:#000000;stroke-width:1.07000005;stroke-linecap:butt;stroke-linejoin:round;stroke-miterlimit:1;stroke-opacity:1;stroke-dasharray:none;filter:url(#filter3434)" /><path
       d="m 325.13,207.21 h 12.58"
       transform="matrix(1.3333333,0,0,-1.3333333,0,377.33333)"
       id="path132"
       style="fill:none;stroke:#000000;stroke-width:1.07000005;stroke-linecap:butt;stroke-linejoin:round;stroke-miterlimit:1;stroke-opacity:1;stroke-dasharray:none;filter:url(#filter3434)" /><path
       d="m 507.5,145.16 h 12.58"
       transform="matrix(1.3333333,0,0,-1.3333333,0,377.33333)"
       id="path134"
       style="fill:none;stroke:#000000;stroke-width:1.07000005;stroke-linecap:butt;stroke-linejoin:round;stroke-miterlimit:1;stroke-opacity:1;stroke-dasharray:none;filter:url(#filter3434)" /><path
       d="m 513.79,145.16 v -9.33"
       transform="matrix(1.3333333,0,0,-1.3333333,0,377.33333)"
       id="path136"
       style="fill:none;stroke:#000000;stroke-width:1.07000005;stroke-linecap:butt;stroke-linejoin:round;stroke-miterlimit:1;stroke-opacity:1;stroke-dasharray:none;filter:url(#filter3434)" /><path
       d="m 507.5,135.83 h 12.58"
       transform="matrix(1.3333333,0,0,-1.3333333,0,377.33333)"
       id="path138"
       style="fill:none;stroke:#000000;stroke-width:1.07000005;stroke-linecap:butt;stroke-linejoin:round;stroke-miterlimit:1;stroke-opacity:1;stroke-dasharray:none;filter:url(#filter3434)" /><path
       d="m 450.9,180.57 h 12.58"
       transform="matrix(1.3333333,0,0,-1.3333333,0,377.33333)"
       id="path140"
       style="fill:none;stroke:#000000;stroke-width:1.07000005;stroke-linecap:butt;stroke-linejoin:round;stroke-miterlimit:1;stroke-opacity:1;stroke-dasharray:none;filter:url(#filter3434)" /><path
       d="M 457.19,180.57 V 169.78"
       transform="matrix(1.3333333,0,0,-1.3333333,0,377.33333)"
       id="path142"
       style="fill:none;stroke:#000000;stroke-width:1.07000005;stroke-linecap:butt;stroke-linejoin:round;stroke-miterlimit:1;stroke-opacity:1;stroke-dasharray:none;filter:url(#filter3434)" /><path
       d="m 450.9,169.78 h 12.58"
       transform="matrix(1.3333333,0,0,-1.3333333,0,377.33333)"
       id="path144"
       style="fill:none;stroke:#000000;stroke-width:1.07000005;stroke-linecap:butt;stroke-linejoin:round;stroke-miterlimit:1;stroke-opacity:1;stroke-dasharray:none;filter:url(#filter3434)" /><path
       d="m 456.56,183.83 v 2.21 h 57.86 v -2.21"
       transform="matrix(1.3333333,0,0,-1.3333333,0,377.33333)"
       id="path146"
       style="fill:none;stroke:#000000;stroke-width:1.07000005;stroke-linecap:butt;stroke-linejoin:round;stroke-miterlimit:1;stroke-opacity:1;stroke-dasharray:none;filter:url(#filter3434)" /><text
       transform="matrix(1.3333333,0,0,1.3333333,638.75998,116.58667)"
       id="text150"
       style="font-size:11px;font-variant:normal;font-weight:normal;writing-mode:lr-tb;fill:#000000;fill-opacity:1;fill-rule:nonzero;stroke:none;filter:url(#filter3434);font-family:Helvetica;-inkscape-font-specification:Helvetica"><tspan
         x="0 4.2789998 8.5579996"
         y="0"
         id="tspan148">***</tspan></text>
<text
       transform="matrix(1.3333333,0,0,1.3333333,616.53332,125.42667)"
       id="text154"
       style="font-size:11px;font-variant:normal;font-weight:normal;writing-mode:lr-tb;fill:#000000;fill-opacity:1;fill-rule:nonzero;stroke:none;filter:url(#filter3434);font-family:Helvetica;-inkscape-font-specification:Helvetica"><tspan
         x="0 6.1160002 12.54 18.656 21.714001 27.83 33.945999 40.062"
         y="0"
         id="tspan152">p&lt;0.0001</tspan></text>
<path
       d="m 79.24,254.46 v 2.21 h 57.86 v -2.21"
       transform="matrix(1.3333333,0,0,-1.3333333,0,377.33333)"
       id="path156"
       style="fill:none;stroke:#000000;stroke-width:1.07000005;stroke-linecap:butt;stroke-linejoin:round;stroke-miterlimit:1;stroke-opacity:1;stroke-dasharray:none;filter:url(#filter3434)" /><text
       transform="matrix(1.3333333,0,0,1.3333333,135.66666,22.413339)"
       id="text160"
       style="font-size:11px;font-variant:normal;font-weight:normal;writing-mode:lr-tb;fill:#000000;fill-opacity:1;fill-rule:nonzero;stroke:none;filter:url(#filter3434);font-family:Helvetica;-inkscape-font-specification:Helvetica"><tspan
         x="0 4.2789998 8.5579996"
         y="0"
         id="tspan158">***</tspan></text>
<text
       transform="matrix(1.3333333,0,0,1.3333333,113.44,31.253339)"
       id="text164"
       style="font-size:11px;font-variant:normal;font-weight:normal;writing-mode:lr-tb;fill:#000000;fill-opacity:1;fill-rule:nonzero;stroke:none;filter:url(#filter3434);font-family:Helvetica;-inkscape-font-specification:Helvetica"><tspan
         x="0 6.1160002 12.54 18.656 21.714001 27.83 33.945999 40.062"
         y="0"
         id="tspan162">p&lt;0.0001</tspan></text>
<path
       d="m 205.02,210.32 v 2.21 h 57.85 v -2.21"
       transform="matrix(1.3333333,0,0,-1.3333333,0,377.33333)"
       id="path166"
       style="fill:none;stroke:#000000;stroke-width:1.07000005;stroke-linecap:butt;stroke-linejoin:round;stroke-miterlimit:1;stroke-opacity:1;stroke-dasharray:none;filter:url(#filter3434)" /><text
       transform="matrix(1.3333333,0,0,1.3333333,309.06666,80.093337)"
       id="text170"
       style="font-size:11px;font-variant:normal;font-weight:normal;writing-mode:lr-tb;fill:#000000;fill-opacity:1;fill-rule:nonzero;stroke:none;filter:url(#filter3434);font-family:Helvetica;-inkscape-font-specification:Helvetica"><tspan
         x="0"
         y="0"
         id="tspan168">*</tspan></text>
<text
       transform="matrix(1.3333333,0,0,1.3333333,281.13333,88.933337)"
       id="text174"
       style="font-size:11px;font-variant:normal;font-weight:normal;writing-mode:lr-tb;fill:#000000;fill-opacity:1;fill-rule:nonzero;stroke:none;filter:url(#filter3434);font-family:Helvetica;-inkscape-font-specification:Helvetica"><tspan
         x="0 6.1160002 12.54 18.656 21.714001 27.83 33.945999 40.062"
         y="0"
         id="tspan172">p=0.0282</tspan></text>
<path
       d="m 330.79,230.18 v 2.21 h 57.85 v -2.21"
       transform="matrix(1.3333333,0,0,-1.3333333,0,377.33333)"
       id="path176"
       style="fill:none;stroke:#000000;stroke-width:1.07000005;stroke-linecap:butt;stroke-linejoin:round;stroke-miterlimit:1;stroke-opacity:1;stroke-dasharray:none;filter:url(#filter3434)" /><text
       transform="matrix(1.3333333,0,0,1.3333333,476.77332,54.786671)"
       id="text180"
       style="font-size:11px;font-variant:normal;font-weight:normal;writing-mode:lr-tb;fill:#000000;fill-opacity:1;fill-rule:nonzero;stroke:none;filter:url(#filter3434);font-family:Helvetica;-inkscape-font-specification:Helvetica"><tspan
         x="0"
         y="0"
         id="tspan178">*</tspan></text>
<text
       transform="matrix(1.3333333,0,0,1.3333333,448.83999,63.626671)"
       id="text184"
       style="font-size:11px;font-variant:normal;font-weight:normal;writing-mode:lr-tb;fill:#000000;fill-opacity:1;fill-rule:nonzero;stroke:none;filter:url(#filter3434);font-family:Helvetica;-inkscape-font-specification:Helvetica"><tspan
         x="0 6.1160002 12.54 18.656 21.714001 27.83 33.945999 40.062"
         y="0"
         id="tspan182">p=0.0496</tspan></text>
<path
       d="M 32.71,42.94 H 560.96 V 277.49 H 32.71 z"
       transform="matrix(1.3333333,0,0,-1.3333333,0,377.33333)"
       id="path186"
       style="fill:none;stroke:#7f7f7f;stroke-width:1.07000005;stroke-linecap:round;stroke-linejoin:round;stroke-miterlimit:10;stroke-opacity:1;stroke-dasharray:none;filter:url(#filter3434)" /><text
       transform="matrix(1.3333333,0,0,1.3333333,29.026666,310.65333)"
       id="text202"
       style="font-size:10px;font-variant:normal;font-weight:normal;writing-mode:lr-tb;fill:#000000;fill-opacity:1;fill-rule:nonzero;stroke:none;filter:url(#filter3434);font-family:Helvetica;-inkscape-font-specification:Helvetica"><tspan
         x="0"
         y="0"
         id="tspan200">0</tspan></text>
<text
       transform="matrix(1.3333333,0,0,1.3333333,29.026666,251.78667)"
       id="text206"
       style="font-size:10px;font-variant:normal;font-weight:normal;writing-mode:lr-tb;fill:#000000;fill-opacity:1;fill-rule:nonzero;stroke:none;filter:url(#filter3434);font-family:Helvetica;-inkscape-font-specification:Helvetica"><tspan
         x="0"
         y="0"
         id="tspan204">1</tspan></text>
<text
       transform="matrix(1.3333333,0,0,1.3333333,29.026666,192.93333)"
       id="text210"
       style="font-size:10px;font-variant:normal;font-weight:normal;writing-mode:lr-tb;fill:#000000;fill-opacity:1;fill-rule:nonzero;stroke:none;filter:url(#filter3434);font-family:Helvetica;-inkscape-font-specification:Helvetica"><tspan
         x="0"
         y="0"
         id="tspan208">2</tspan></text>
<text
       transform="matrix(1.3333333,0,0,1.3333333,29.026666,134.06667)"
       id="text214"
       style="font-size:10px;font-variant:normal;font-weight:normal;writing-mode:lr-tb;fill:#000000;fill-opacity:1;fill-rule:nonzero;stroke:none;filter:url(#filter3434);font-family:Helvetica;-inkscape-font-specification:Helvetica"><tspan
         x="0"
         y="0"
         id="tspan212">3</tspan></text>
<text
       transform="matrix(1.3333333,0,0,1.3333333,29.026666,75.213338)"
       id="text218"
       style="font-size:10px;font-variant:normal;font-weight:normal;writing-mode:lr-tb;fill:#000000;fill-opacity:1;fill-rule:nonzero;stroke:none;filter:url(#filter3434);font-family:Helvetica;-inkscape-font-specification:Helvetica"><tspan
         x="0"
         y="0"
         id="tspan216">4</tspan></text>
<text
       transform="matrix(1.3333333,0,0,1.3333333,29.026666,16.346672)"
       id="text222"
       style="font-size:10px;font-variant:normal;font-weight:normal;writing-mode:lr-tb;fill:#000000;fill-opacity:1;fill-rule:nonzero;stroke:none;filter:url(#filter3434);font-family:Helvetica;-inkscape-font-specification:Helvetica"><tspan
         x="0"
         y="0"
         id="tspan220">5</tspan></text>
<path
       d="m 29.72,53.6 h 2.99"
       transform="matrix(1.3333333,0,0,-1.3333333,0,377.33333)"
       id="path230"
       style="fill:none;stroke:#000000;stroke-width:1.07000005;stroke-linecap:butt;stroke-linejoin:round;stroke-miterlimit:10;stroke-opacity:1;stroke-dasharray:none;filter:url(#filter3434)" /><path
       d="m 29.72,97.75 h 2.99"
       transform="matrix(1.3333333,0,0,-1.3333333,0,377.33333)"
       id="path232"
       style="fill:none;stroke:#000000;stroke-width:1.07000005;stroke-linecap:butt;stroke-linejoin:round;stroke-miterlimit:10;stroke-opacity:1;stroke-dasharray:none;filter:url(#filter3434)" /><path
       d="m 29.72,141.89 h 2.99"
       transform="matrix(1.3333333,0,0,-1.3333333,0,377.33333)"
       id="path234"
       style="fill:none;stroke:#000000;stroke-width:1.07000005;stroke-linecap:butt;stroke-linejoin:round;stroke-miterlimit:10;stroke-opacity:1;stroke-dasharray:none;filter:url(#filter3434)" /><path
       d="m 29.72,186.04 h 2.99"
       transform="matrix(1.3333333,0,0,-1.3333333,0,377.33333)"
       id="path236"
       style="fill:none;stroke:#000000;stroke-width:1.07000005;stroke-linecap:butt;stroke-linejoin:round;stroke-miterlimit:10;stroke-opacity:1;stroke-dasharray:none;filter:url(#filter3434)" /><path
       d="m 29.72,230.18 h 2.99"
       transform="matrix(1.3333333,0,0,-1.3333333,0,377.33333)"
       id="path238"
       style="fill:none;stroke:#000000;stroke-width:1.07000005;stroke-linecap:butt;stroke-linejoin:round;stroke-miterlimit:10;stroke-opacity:1;stroke-dasharray:none;filter:url(#filter3434)" /><path
       d="m 29.72,274.33 h 2.99"
       transform="matrix(1.3333333,0,0,-1.3333333,0,377.33333)"
       id="path240"
       style="fill:none;stroke:#000000;stroke-width:1.07000005;stroke-linecap:butt;stroke-linejoin:round;stroke-miterlimit:10;stroke-opacity:1;stroke-dasharray:none;filter:url(#filter3434)" /><path
       d="m 108.17,39.95 v 2.99"
       transform="matrix(1.3333333,0,0,-1.3333333,0,377.33333)"
       id="path260"
       style="fill:none;stroke:#000000;stroke-width:1.07000005;stroke-linecap:butt;stroke-linejoin:round;stroke-miterlimit:10;stroke-opacity:1;stroke-dasharray:none;filter:url(#filter3434)" /><path
       d="m 233.94,39.95 v 2.99"
       transform="matrix(1.3333333,0,0,-1.3333333,0,377.33333)"
       id="path262"
       style="fill:none;stroke:#000000;stroke-width:1.07000005;stroke-linecap:butt;stroke-linejoin:round;stroke-miterlimit:10;stroke-opacity:1;stroke-dasharray:none;filter:url(#filter3434)" /><path
       d="m 359.72,39.95 v 2.99"
       transform="matrix(1.3333333,0,0,-1.3333333,0,377.33333)"
       id="path264"
       style="fill:none;stroke:#000000;stroke-width:1.07000005;stroke-linecap:butt;stroke-linejoin:round;stroke-miterlimit:10;stroke-opacity:1;stroke-dasharray:none;filter:url(#filter3434)" /><path
       d="m 485.49,39.95 v 2.99"
       transform="matrix(1.3333333,0,0,-1.3333333,0,377.33333)"
       id="path266"
       style="fill:none;stroke:#000000;stroke-width:1.07000005;stroke-linecap:butt;stroke-linejoin:round;stroke-miterlimit:10;stroke-opacity:1;stroke-dasharray:none;filter:url(#filter3434)" /><text
       transform="matrix(1.3333333,0,0,1.3333333,109.70666,335.86666)"
       id="text274"
       style="font-size:9px;font-variant:normal;font-weight:normal;writing-mode:lr-tb;fill:#000000;fill-opacity:1;fill-rule:nonzero;stroke:none;filter:url(#filter3434);font-family:Helvetica;-inkscape-font-specification:Helvetica"><tspan
         x="0 4.5 9.5039997 14.76 19.764 22.761 27.764999 32.264999 37.269001 42.272999 46.772999"
         y="0"
         id="tspan272">co−presence</tspan></text>
<text
       transform="matrix(1.3333333,0,0,1.3333333,287.58666,335.86666)"
       id="text278"
       style="font-size:9px;font-variant:normal;font-weight:normal;writing-mode:lr-tb;fill:#000000;fill-opacity:1;fill-rule:nonzero;stroke:none;filter:url(#filter3434);font-family:Helvetica;-inkscape-font-specification:Helvetica"><tspan
         x="0 7.4970002 12.501 17.000999 21.500999 26.504999 31.509001"
         y="0"
         id="tspan276">message</tspan></text>
<text
       transform="matrix(1.3333333,0,0,1.3333333,273.90666,348.30666)"
       id="text282"
       style="font-size:9px;font-variant:normal;font-weight:normal;writing-mode:lr-tb;fill:#000000;fill-opacity:1;fill-rule:nonzero;stroke:none;filter:url(#filter3434);font-family:Helvetica;-inkscape-font-specification:Helvetica"><tspan
         x="0 5.0040002 10.008 15.012 20.016001 23.013 27.513 30.014999 35.019001 40.022999 45.027 47.025002 52.028999"
         y="0"
         id="tspan280">understanding</tspan></text>
<text
       transform="matrix(1.3333333,0,0,1.3333333,452.11999,335.86666)"
       id="text286"
       style="font-size:9px;font-variant:normal;font-weight:normal;writing-mode:lr-tb;fill:#000000;fill-opacity:1;fill-rule:nonzero;stroke:none;filter:url(#filter3434);font-family:Helvetica;-inkscape-font-specification:Helvetica"><tspan
         x="0 5.0040002 10.008 15.012 19.836 24.336 26.334 31.337999 34.244999 39.249001"
         y="0"
         id="tspan284">behavioral</tspan></text>
<text
       transform="matrix(1.3333333,0,0,1.3333333,434.91999,348.30666)"
       id="text290"
       style="font-size:9px;font-variant:normal;font-weight:normal;writing-mode:lr-tb;fill:#000000;fill-opacity:1;fill-rule:nonzero;stroke:none;filter:url(#filter3434);font-family:Helvetica;-inkscape-font-specification:Helvetica"><tspan
         x="0 1.998 7.0019999 9.5039997 14.508 17.504999 22.509001 27.513 32.516998 37.521 42.525002 47.528999 52.533001 57.536999 62.036999"
         y="0"
         id="tspan288">interdependence</tspan></text>
<text
       transform="matrix(1.3333333,0,0,1.3333333,619.62665,335.86666)"
       id="text294"
       style="font-size:9px;font-variant:normal;font-weight:normal;writing-mode:lr-tb;fill:#000000;fill-opacity:1;fill-rule:nonzero;stroke:none;filter:url(#filter3434);font-family:Helvetica;-inkscape-font-specification:Helvetica"><tspan
         x="0 5.0040002 7.506 10.008 15.012 20.016001 22.518 24.516001 29.52 34.523998 39.528"
         y="0"
         id="tspan292">attentional</tspan></text>
<text
       transform="matrix(1.3333333,0,0,1.3333333,621.97332,348.30666)"
       id="text298"
       style="font-size:9px;font-variant:normal;font-weight:normal;writing-mode:lr-tb;fill:#000000;fill-opacity:1;fill-rule:nonzero;stroke:none;filter:url(#filter3434);font-family:Helvetica;-inkscape-font-specification:Helvetica"><tspan
         x="0 5.0040002 7.0019999 9 14.004 18.504 23.507999 26.01 28.007999 33.012001"
         y="0"
         id="tspan296">allocation</tspan></text>
<text
       transform="matrix(1.3333333,0,0,1.3333333,304.62666,366.17333)"
       id="text314"
       style="font-size:12px;font-variant:normal;font-weight:normal;writing-mode:lr-tb;fill:#000000;fill-opacity:1;fill-rule:nonzero;stroke:none;filter:url(#filter3434);font-family:Helvetica;-inkscape-font-specification:Helvetica"><tspan
         x="0 8.0039997 14.676 20.676001 23.34 30.011999 32.675999 36.012001 44.015999 48.012001 54.683998 60.683998 67.356003 74.028 80.028 86.699997 90.036003 100.032 106.704 113.376 119.376 126.048 130.04401"
         y="0"
         id="tspan312">Social Presence Measure</tspan></text>
<text
       transform="matrix(0,-1.3333333,1.3333333,0,22.639999,205.66667)"
       id="text324"
       style="font-size:12px;font-variant:normal;font-weight:normal;writing-mode:lr-tb;fill:#000000;fill-opacity:1;fill-rule:nonzero;stroke:none;filter:url(#filter3434);font-family:Helvetica;-inkscape-font-specification:Helvetica"><tspan
         x="0 6.6719999 9.3360004 15.096 21.768 26.243999 29.58 32.916 40.919998 46.919998 53.591999 56.256001"
         y="0"
         id="tspan322">Likert Scale</tspan></text>
<path
       d="m 437.9,214.3 h 87.63 v 56 H 437.9 z"
       transform="matrix(1.3333333,0,0,-1.3333333,0,377.33333)"
       id="path340"
       style="fill:none;stroke:none;filter:url(#filter3434)" /><text
       transform="matrix(1.3333333,0,0,1.3333333,589.53332,34.080005)"
       id="text348"
       style="font-size:12px;font-variant:normal;font-weight:normal;writing-mode:lr-tb;fill:#000000;fill-opacity:1;fill-rule:nonzero;stroke:none;filter:url(#filter3434);font-family:Helvetica;-inkscape-font-specification:Helvetica"><tspan
         x="0 8.6639996 15.336 22.007999 28.68 32.015999 40.02 46.692001 53.363998 59.796001 65.795998 68.459999 75.132004"
         y="0"
         id="tspan346">Head Behavior</tspan></text>
<path
       d="m 442.15,235.84 h 17.28 v 17.28 h -17.28 z"
       transform="matrix(1.3333333,0,0,-1.3333333,0,377.33333)"
       id="path354"
       style="fill:#ffffff;fill-opacity:1;fill-rule:nonzero;stroke:#cccccc;stroke-width:1.07000005;stroke-linecap:round;stroke-linejoin:round;stroke-miterlimit:10;stroke-opacity:1;stroke-dasharray:none;filter:url(#filter3434)" /><path
       d="m 442.86,236.55 h 15.86 v 15.86 h -15.86 z"
       transform="matrix(1.3333333,0,0,-1.3333333,0,377.33333)"
       id="path360"
       style="fill:#333333;fill-opacity:1;fill-rule:nonzero;stroke:#000000;stroke-width:1.07000005;stroke-linecap:round;stroke-linejoin:miter;stroke-miterlimit:10;stroke-opacity:1;stroke-dasharray:none;filter:url(#filter3434)" /><path
       d="m 442.15,218.56 h 17.28 v 17.28 h -17.28 z"
       transform="matrix(1.3333333,0,0,-1.3333333,0,377.33333)"
       id="path366"
       style="fill:#ffffff;fill-opacity:1;fill-rule:nonzero;stroke:#cccccc;stroke-width:1.07000005;stroke-linecap:round;stroke-linejoin:round;stroke-miterlimit:10;stroke-opacity:1;stroke-dasharray:none;filter:url(#filter3434)" /><path
       d="m 442.86,219.27 h 15.86 v 15.86 h -15.86 z"
       transform="matrix(1.3333333,0,0,-1.3333333,0,377.33333)"
       id="path372"
       style="fill:#cccccc;fill-opacity:1;fill-rule:nonzero;stroke:#000000;stroke-width:1.07000005;stroke-linecap:round;stroke-linejoin:miter;stroke-miterlimit:10;stroke-opacity:1;stroke-dasharray:none;filter:url(#filter3434)" /><text
       transform="matrix(1.3333333,0,0,1.3333333,615.45332,56.146671)"
       id="text380"
       style="font-size:10px;font-variant:normal;font-weight:normal;writing-mode:lr-tb;fill:#000000;fill-opacity:1;fill-rule:nonzero;stroke:none;filter:url(#filter3434);font-family:Helvetica;-inkscape-font-specification:Helvetica"><tspan
         x="0"
         y="0"
         id="tspan378">A</tspan></text>
<text
       transform="matrix(1.3333333,0,0,1.3333333,615.45332,79.186671)"
       id="text388"
       style="font-size:10px;font-variant:normal;font-weight:normal;writing-mode:lr-tb;fill:#000000;fill-opacity:1;fill-rule:nonzero;stroke:none;filter:url(#filter3434);font-family:Helvetica;-inkscape-font-specification:Helvetica"><tspan
         x="0"
         y="0"
         id="tspan386">C</tspan></text>
</g></svg>